<svg id="svg" version="1.1" xmlns="http://www.w3.org/2000/svg" xmlns:xlink="http://www.w3.org/1999/xlink" width="400" height="400" viewBox="0, 0, 400,400"><g id="svgg"><path id="path0" d="M184.400 32.600 C 184.400 33.101,183.576 33.200,179.387 33.200 C 175.301 33.200,174.332 33.311,174.145 33.800 C 173.965 34.267,173.172 34.400,170.557 34.400 C 167.840 34.400,167.200 34.514,167.200 35.000 C 167.200 35.467,166.667 35.600,164.800 35.600 C 162.933 35.600,162.400 35.733,162.400 36.200 C 162.400 36.676,161.821 36.800,159.587 36.800 C 157.456 36.800,156.719 36.945,156.545 37.400 C 156.388 37.807,155.750 38.000,154.557 38.000 C 153.262 38.000,152.800 38.158,152.800 38.600 C 152.800 39.061,152.289 39.200,150.600 39.200 C 149.390 39.200,148.400 39.356,148.400 39.547 C 148.400 39.738,147.639 39.997,146.709 40.122 C 145.778 40.246,144.953 40.540,144.875 40.774 C 144.797 41.008,144.221 41.200,143.595 41.200 C 142.969 41.200,142.187 41.470,141.857 41.800 C 141.527 42.130,140.794 42.400,140.229 42.400 C 139.581 42.400,139.200 42.622,139.200 43.000 C 139.200 43.434,138.754 43.600,137.587 43.600 C 136.523 43.600,135.897 43.804,135.745 44.200 C 135.613 44.542,135.017 44.800,134.357 44.800 C 133.595 44.800,133.200 45.005,133.200 45.400 C 133.200 45.800,132.800 46.000,132.000 46.000 C 131.200 46.000,130.800 46.200,130.800 46.600 C 130.800 47.033,130.356 47.200,129.200 47.200 C 128.044 47.200,127.600 47.367,127.600 47.800 C 127.600 48.200,127.200 48.400,126.400 48.400 C 125.600 48.400,125.200 48.600,125.200 49.000 C 125.200 49.400,124.800 49.600,124.000 49.600 C 123.200 49.600,122.800 49.800,122.800 50.200 C 122.800 50.575,122.421 50.800,121.787 50.800 C 121.231 50.800,120.671 51.070,120.545 51.400 C 120.418 51.730,120.064 52.000,119.757 52.000 C 119.451 52.000,119.200 52.180,119.200 52.400 C 119.200 52.620,118.744 52.800,118.187 52.800 C 117.631 52.800,117.071 53.070,116.945 53.400 C 116.818 53.730,116.284 54.000,115.757 54.000 C 115.173 54.000,114.800 54.234,114.800 54.600 C 114.800 54.975,114.421 55.200,113.787 55.200 C 113.231 55.200,112.671 55.470,112.545 55.800 C 112.418 56.130,112.064 56.400,111.757 56.400 C 111.451 56.400,111.200 56.670,111.200 57.000 C 111.200 57.400,110.800 57.600,110.000 57.600 C 109.200 57.600,108.800 57.800,108.800 58.200 C 108.800 58.530,108.530 58.800,108.200 58.800 C 107.870 58.800,107.600 59.070,107.600 59.400 C 107.600 59.800,107.200 60.000,106.400 60.000 C 105.600 60.000,105.200 60.200,105.200 60.600 C 105.200 60.930,104.930 61.200,104.600 61.200 C 104.270 61.200,104.000 61.470,104.000 61.800 C 104.000 62.173,103.622 62.400,103.000 62.400 C 102.378 62.400,102.000 62.627,102.000 63.000 C 102.000 63.330,101.730 63.600,101.400 63.600 C 101.070 63.600,100.800 63.870,100.800 64.200 C 100.800 64.582,100.416 64.800,99.746 64.800 C 99.135 64.800,98.302 65.221,97.765 65.800 C 97.255 66.350,96.650 66.800,96.419 66.800 C 96.189 66.800,96.000 67.070,96.000 67.400 C 96.000 67.730,95.730 68.000,95.400 68.000 C 95.070 68.000,94.800 68.270,94.800 68.600 C 94.800 68.930,94.446 69.200,94.013 69.200 C 93.175 69.200,89.200 72.793,89.200 73.550 C 89.200 73.798,88.930 74.000,88.600 74.000 C 88.270 74.000,88.000 74.270,88.000 74.600 C 88.000 74.930,87.730 75.200,87.400 75.200 C 87.070 75.200,86.800 75.470,86.800 75.800 C 86.800 76.200,86.400 76.400,85.600 76.400 C 84.800 76.400,84.400 76.600,84.400 77.000 C 84.400 77.330,84.130 77.600,83.800 77.600 C 83.470 77.600,83.200 77.870,83.200 78.200 C 83.200 78.530,83.025 78.800,82.811 78.800 C 82.303 78.800,78.800 82.303,78.800 82.811 C 78.800 83.025,78.530 83.200,78.200 83.200 C 77.870 83.200,77.600 83.470,77.600 83.800 C 77.600 84.130,77.330 84.400,77.000 84.400 C 76.600 84.400,76.400 84.800,76.400 85.600 C 76.400 86.400,76.200 86.800,75.800 86.800 C 75.470 86.800,75.200 87.070,75.200 87.400 C 75.200 87.730,74.930 88.000,74.600 88.000 C 74.270 88.000,74.000 88.270,74.000 88.600 C 74.000 88.930,73.798 89.200,73.550 89.200 C 72.793 89.200,69.200 93.175,69.200 94.013 C 69.200 94.446,68.930 94.800,68.600 94.800 C 68.270 94.800,68.000 95.070,68.000 95.400 C 68.000 95.730,67.730 96.000,67.400 96.000 C 67.070 96.000,66.800 96.189,66.800 96.419 C 66.800 96.650,66.350 97.255,65.800 97.765 C 65.221 98.302,64.800 99.135,64.800 99.746 C 64.800 100.416,64.582 100.800,64.200 100.800 C 63.870 100.800,63.600 101.070,63.600 101.400 C 63.600 101.730,63.330 102.000,63.000 102.000 C 62.627 102.000,62.400 102.378,62.400 103.000 C 62.400 103.622,62.173 104.000,61.800 104.000 C 61.470 104.000,61.200 104.270,61.200 104.600 C 61.200 104.930,60.930 105.200,60.600 105.200 C 60.200 105.200,60.000 105.600,60.000 106.400 C 60.000 107.200,59.800 107.600,59.400 107.600 C 59.070 107.600,58.800 107.870,58.800 108.200 C 58.800 108.530,58.530 108.800,58.200 108.800 C 57.800 108.800,57.600 109.200,57.600 110.000 C 57.600 110.800,57.400 111.200,57.000 111.200 C 56.670 111.200,56.400 111.451,56.400 111.757 C 56.400 112.064,56.130 112.418,55.800 112.545 C 55.470 112.671,55.200 113.231,55.200 113.787 C 55.200 114.421,54.975 114.800,54.600 114.800 C 54.270 114.800,54.000 115.151,54.000 115.579 C 54.000 116.008,53.550 116.844,53.000 117.438 C 52.450 118.031,52.000 118.921,52.000 119.416 C 52.000 119.910,51.730 120.418,51.400 120.545 C 51.070 120.671,50.800 121.231,50.800 121.787 C 50.800 122.421,50.575 122.800,50.200 122.800 C 49.800 122.800,49.600 123.200,49.600 124.000 C 49.600 124.800,49.400 125.200,49.000 125.200 C 48.600 125.200,48.400 125.600,48.400 126.400 C 48.400 127.200,48.200 127.600,47.800 127.600 C 47.434 127.600,47.200 127.973,47.200 128.557 C 47.200 129.084,46.930 129.618,46.600 129.745 C 46.204 129.897,46.000 130.523,46.000 131.587 C 46.000 132.754,45.834 133.200,45.400 133.200 C 45.000 133.200,44.800 133.600,44.800 134.400 C 44.800 135.200,44.600 135.600,44.200 135.600 C 43.756 135.600,43.600 136.067,43.600 137.400 C 43.600 138.733,43.444 139.200,43.000 139.200 C 42.622 139.200,42.400 139.581,42.400 140.229 C 42.400 140.794,42.130 141.527,41.800 141.857 C 41.470 142.187,41.200 142.965,41.200 143.586 C 41.200 144.220,40.937 144.815,40.600 144.945 C 40.204 145.097,40.000 145.723,40.000 146.787 C 40.000 147.674,39.820 148.400,39.600 148.400 C 39.380 148.400,39.200 149.390,39.200 150.600 C 39.200 152.289,39.061 152.800,38.600 152.800 C 38.156 152.800,38.000 153.267,38.000 154.600 C 38.000 155.933,37.844 156.400,37.400 156.400 C 36.933 156.400,36.800 156.933,36.800 158.800 C 36.800 160.667,36.667 161.200,36.200 161.200 C 35.725 161.200,35.600 161.773,35.600 163.957 C 35.600 166.039,35.453 166.771,35.000 166.945 C 34.532 167.124,34.400 167.923,34.400 170.587 C 34.400 173.354,34.286 174.000,33.800 174.000 C 33.302 174.000,33.200 174.773,33.200 178.557 C 33.200 182.239,33.085 183.159,32.600 183.345 C 32.080 183.544,32.000 185.723,32.000 199.587 C 32.000 213.554,32.077 215.600,32.600 215.600 C 33.099 215.600,33.200 216.378,33.200 220.200 C 33.200 224.022,33.301 224.800,33.800 224.800 C 34.289 224.800,34.400 225.467,34.400 228.400 C 34.400 231.333,34.511 232.000,35.000 232.000 C 35.476 232.000,35.600 232.578,35.600 234.800 C 35.600 237.022,35.724 237.600,36.200 237.600 C 36.667 237.600,36.800 238.133,36.800 240.000 C 36.800 241.867,36.933 242.400,37.400 242.400 C 37.861 242.400,38.000 242.913,38.000 244.613 C 38.000 246.210,38.167 246.889,38.600 247.055 C 38.991 247.205,39.200 247.828,39.200 248.843 C 39.200 249.699,39.380 250.400,39.600 250.400 C 39.820 250.400,40.000 251.126,40.000 252.013 C 40.000 253.077,40.204 253.703,40.600 253.855 C 40.992 254.006,41.200 254.629,41.200 255.655 C 41.200 256.682,41.408 257.305,41.800 257.455 C 42.172 257.598,42.400 258.207,42.400 259.055 C 42.400 259.904,42.628 260.513,43.000 260.655 C 43.342 260.787,43.600 261.383,43.600 262.043 C 43.600 262.805,43.805 263.200,44.200 263.200 C 44.600 263.200,44.800 263.600,44.800 264.400 C 44.800 265.200,45.000 265.600,45.400 265.600 C 45.844 265.600,46.000 266.067,46.000 267.400 C 46.000 268.733,46.156 269.200,46.600 269.200 C 47.000 269.200,47.200 269.600,47.200 270.400 C 47.200 271.200,47.400 271.600,47.800 271.600 C 48.175 271.600,48.400 271.979,48.400 272.613 C 48.400 273.169,48.670 273.729,49.000 273.855 C 49.330 273.982,49.600 274.516,49.600 275.043 C 49.600 275.627,49.834 276.000,50.200 276.000 C 50.600 276.000,50.800 276.400,50.800 277.200 C 50.800 278.000,51.000 278.400,51.400 278.400 C 51.800 278.400,52.000 278.800,52.000 279.600 C 52.000 280.260,52.160 280.800,52.357 280.800 C 52.553 280.800,52.818 281.219,52.947 281.731 C 53.076 282.243,53.635 283.153,54.190 283.752 C 54.746 284.351,55.200 285.198,55.200 285.633 C 55.200 286.069,55.470 286.529,55.800 286.655 C 56.130 286.782,56.400 287.232,56.400 287.655 C 56.400 288.079,56.670 288.529,57.000 288.655 C 57.330 288.782,57.600 289.136,57.600 289.443 C 57.600 289.749,57.870 290.000,58.200 290.000 C 58.575 290.000,58.800 290.379,58.800 291.013 C 58.800 291.569,59.070 292.129,59.400 292.255 C 59.730 292.382,60.000 292.736,60.000 293.043 C 60.000 293.349,60.270 293.600,60.600 293.600 C 60.975 293.600,61.200 293.979,61.200 294.613 C 61.200 295.169,61.470 295.729,61.800 295.855 C 62.130 295.982,62.400 296.336,62.400 296.643 C 62.400 296.949,62.670 297.200,63.000 297.200 C 63.330 297.200,63.600 297.470,63.600 297.800 C 63.600 298.130,63.870 298.400,64.200 298.400 C 64.573 298.400,64.800 298.778,64.800 299.400 C 64.800 299.950,64.980 300.400,65.200 300.400 C 65.420 300.400,65.600 300.670,65.600 301.000 C 65.600 301.330,65.870 301.600,66.200 301.600 C 66.530 301.600,66.800 301.870,66.800 302.200 C 66.800 302.530,67.070 302.800,67.400 302.800 C 67.775 302.800,68.000 303.179,68.000 303.813 C 68.000 304.369,68.270 304.929,68.600 305.055 C 68.930 305.182,69.200 305.536,69.200 305.843 C 69.200 306.149,69.470 306.400,69.800 306.400 C 70.130 306.400,70.400 306.670,70.400 307.000 C 70.400 307.330,70.670 307.600,71.000 307.600 C 71.330 307.600,71.600 307.870,71.600 308.200 C 71.600 308.530,71.870 308.800,72.200 308.800 C 72.530 308.800,72.800 309.070,72.800 309.400 C 72.800 309.730,73.070 310.000,73.400 310.000 C 73.733 310.000,74.000 310.356,74.000 310.800 C 74.000 311.633,75.306 313.200,76.000 313.200 C 76.220 313.200,76.400 313.401,76.400 313.647 C 76.400 313.893,77.120 314.792,78.000 315.646 C 78.880 316.500,79.600 317.379,79.600 317.600 C 79.600 317.820,79.870 318.000,80.200 318.000 C 80.530 318.000,80.800 318.270,80.800 318.600 C 80.800 318.930,81.070 319.200,81.400 319.200 C 81.730 319.200,82.000 319.470,82.000 319.800 C 82.000 320.130,82.270 320.400,82.600 320.400 C 82.930 320.400,83.200 320.670,83.200 321.000 C 83.200 321.330,83.470 321.600,83.800 321.600 C 84.130 321.600,84.400 321.870,84.400 322.200 C 84.400 322.530,84.670 322.800,85.000 322.800 C 85.330 322.800,85.600 322.980,85.600 323.200 C 85.600 323.420,85.870 323.600,86.200 323.600 C 86.530 323.600,86.800 323.870,86.800 324.200 C 86.800 324.600,87.200 324.800,88.000 324.800 C 88.800 324.800,89.200 325.000,89.200 325.400 C 89.200 325.730,89.380 326.000,89.600 326.000 C 89.820 326.000,90.000 326.270,90.000 326.600 C 90.000 326.930,90.270 327.200,90.600 327.200 C 90.930 327.200,91.200 327.470,91.200 327.800 C 91.200 328.130,91.470 328.400,91.800 328.400 C 92.130 328.400,92.400 328.670,92.400 329.000 C 92.400 329.330,92.651 329.600,92.957 329.600 C 93.264 329.600,93.618 329.870,93.745 330.200 C 93.871 330.530,94.431 330.800,94.987 330.800 C 95.621 330.800,96.000 331.025,96.000 331.400 C 96.000 331.730,96.270 332.000,96.600 332.000 C 96.930 332.000,97.200 332.270,97.200 332.600 C 97.200 332.930,97.470 333.200,97.800 333.200 C 98.130 333.200,98.400 333.470,98.400 333.800 C 98.400 334.130,98.593 334.400,98.829 334.400 C 99.064 334.400,99.527 334.670,99.857 335.000 C 100.187 335.330,100.804 335.600,101.229 335.600 C 101.653 335.600,102.000 335.805,102.000 336.056 C 102.000 336.728,103.268 337.573,104.300 337.587 C 104.828 337.595,105.200 337.848,105.200 338.200 C 105.200 338.530,105.470 338.800,105.800 338.800 C 106.130 338.800,106.400 339.070,106.400 339.400 C 106.400 339.800,106.800 340.000,107.600 340.000 C 108.400 340.000,108.800 340.200,108.800 340.600 C 108.800 340.930,109.070 341.200,109.400 341.200 C 109.730 341.200,110.000 341.470,110.000 341.800 C 110.000 342.200,110.400 342.400,111.200 342.400 C 112.000 342.400,112.400 342.600,112.400 343.000 C 112.400 343.400,112.800 343.600,113.600 343.600 C 114.400 343.600,114.800 343.800,114.800 344.200 C 114.800 344.530,115.051 344.800,115.357 344.800 C 115.664 344.800,116.018 345.070,116.145 345.400 C 116.271 345.730,116.721 346.000,117.145 346.000 C 117.568 346.000,118.018 346.270,118.145 346.600 C 118.271 346.930,118.811 347.200,119.345 347.200 C 119.878 347.200,120.418 347.470,120.545 347.800 C 120.671 348.130,121.231 348.400,121.787 348.400 C 122.421 348.400,122.800 348.625,122.800 349.000 C 122.800 349.400,123.200 349.600,124.000 349.600 C 124.660 349.600,125.200 349.780,125.200 350.000 C 125.200 350.220,125.650 350.400,126.200 350.400 C 126.822 350.400,127.200 350.627,127.200 351.000 C 127.200 351.400,127.600 351.600,128.400 351.600 C 129.200 351.600,129.600 351.800,129.600 352.200 C 129.600 352.595,129.995 352.800,130.757 352.800 C 131.417 352.800,132.013 353.058,132.145 353.400 C 132.297 353.796,132.923 354.000,133.987 354.000 C 135.154 354.000,135.600 354.166,135.600 354.600 C 135.600 355.000,136.000 355.200,136.800 355.200 C 137.600 355.200,138.000 355.400,138.000 355.800 C 138.000 356.231,138.440 356.400,139.557 356.400 C 140.572 356.400,141.195 356.609,141.345 357.000 C 141.497 357.396,142.123 357.600,143.187 357.600 C 144.354 357.600,144.800 357.766,144.800 358.200 C 144.800 358.644,145.267 358.800,146.600 358.800 C 147.933 358.800,148.400 358.956,148.400 359.400 C 148.400 359.844,148.867 360.000,150.200 360.000 C 151.533 360.000,152.000 360.156,152.000 360.600 C 152.000 361.024,152.439 361.204,153.500 361.213 C 154.325 361.220,155.349 361.490,155.776 361.813 C 156.204 362.136,157.329 362.400,158.276 362.400 C 159.224 362.400,160.000 362.580,160.000 362.800 C 160.000 363.028,161.186 363.200,162.757 363.200 C 164.839 363.200,165.571 363.347,165.745 363.800 C 165.924 364.268,166.723 364.400,169.387 364.400 C 172.154 364.400,172.800 364.514,172.800 365.000 C 172.800 365.493,173.506 365.600,176.757 365.600 C 179.906 365.600,180.761 365.723,180.945 366.200 C 181.293 367.109,218.000 367.109,218.000 366.200 C 218.000 365.707,218.711 365.600,222.000 365.600 C 225.289 365.600,226.000 365.493,226.000 365.000 C 226.000 364.511,226.667 364.400,229.600 364.400 C 232.533 364.400,233.200 364.289,233.200 363.800 C 233.200 363.324,233.778 363.200,236.000 363.200 C 237.540 363.200,238.800 363.042,238.800 362.850 C 238.800 362.657,239.826 362.414,241.080 362.310 C 242.334 362.206,243.429 361.914,243.513 361.660 C 243.598 361.407,244.377 361.200,245.246 361.200 C 246.281 361.200,246.904 360.993,247.055 360.600 C 247.205 360.209,247.828 360.000,248.843 360.000 C 249.960 360.000,250.400 359.831,250.400 359.400 C 250.400 358.956,250.867 358.800,252.200 358.800 C 253.533 358.800,254.000 358.644,254.000 358.200 C 254.000 357.756,254.467 357.600,255.800 357.600 C 257.133 357.600,257.600 357.444,257.600 357.000 C 257.600 356.566,258.046 356.400,259.213 356.400 C 260.277 356.400,260.903 356.196,261.055 355.800 C 261.182 355.470,261.716 355.200,262.243 355.200 C 262.827 355.200,263.200 354.966,263.200 354.600 C 263.200 354.156,263.667 354.000,265.000 354.000 C 266.333 354.000,266.800 353.844,266.800 353.400 C 266.800 353.000,267.200 352.800,268.000 352.800 C 268.800 352.800,269.200 352.600,269.200 352.200 C 269.200 351.800,269.600 351.600,270.400 351.600 C 271.200 351.600,271.600 351.400,271.600 351.000 C 271.600 350.600,272.000 350.400,272.800 350.400 C 273.460 350.400,274.000 350.220,274.000 350.000 C 274.000 349.780,274.450 349.600,275.000 349.600 C 275.622 349.600,276.000 349.373,276.000 349.000 C 276.000 348.600,276.400 348.400,277.200 348.400 C 278.000 348.400,278.400 348.200,278.400 347.800 C 278.400 347.400,278.800 347.200,279.600 347.200 C 280.400 347.200,280.800 347.000,280.800 346.600 C 280.800 346.225,281.179 346.000,281.813 346.000 C 282.369 346.000,282.929 345.730,283.055 345.400 C 283.182 345.070,283.716 344.800,284.243 344.800 C 284.827 344.800,285.200 344.566,285.200 344.200 C 285.200 343.870,285.476 343.600,285.813 343.600 C 286.149 343.600,286.529 343.330,286.655 343.000 C 286.782 342.670,287.316 342.400,287.843 342.400 C 288.427 342.400,288.800 342.166,288.800 341.800 C 288.800 341.470,289.070 341.200,289.400 341.200 C 289.730 341.200,290.000 340.930,290.000 340.600 C 290.000 340.200,290.400 340.000,291.200 340.000 C 292.000 340.000,292.400 339.800,292.400 339.400 C 292.400 339.070,292.670 338.800,293.000 338.800 C 293.330 338.800,293.600 338.530,293.600 338.200 C 293.600 337.818,293.984 337.600,294.654 337.600 C 295.251 337.600,296.092 337.186,296.592 336.647 C 297.078 336.123,297.863 335.570,298.338 335.420 C 298.812 335.269,299.200 334.978,299.200 334.773 C 299.200 334.568,299.470 334.400,299.800 334.400 C 300.130 334.400,300.400 334.130,300.400 333.800 C 300.400 333.470,300.670 333.200,301.000 333.200 C 301.330 333.200,301.600 332.930,301.600 332.600 C 301.600 332.225,301.979 332.000,302.613 332.000 C 303.169 332.000,303.729 331.730,303.855 331.400 C 303.982 331.070,304.336 330.800,304.643 330.800 C 304.949 330.800,305.200 330.530,305.200 330.200 C 305.200 329.870,305.470 329.600,305.800 329.600 C 306.130 329.600,306.400 329.330,306.400 329.000 C 306.400 328.670,306.670 328.400,307.000 328.400 C 307.330 328.400,307.600 328.130,307.600 327.800 C 307.600 327.470,307.870 327.200,308.200 327.200 C 308.530 327.200,308.800 326.930,308.800 326.600 C 308.800 326.262,309.158 326.000,309.619 326.000 C 310.070 326.000,310.855 325.550,311.365 325.000 C 311.875 324.450,312.496 324.000,312.746 324.000 C 312.996 324.000,313.200 323.730,313.200 323.400 C 313.200 323.070,313.470 322.800,313.800 322.800 C 314.130 322.800,314.400 322.530,314.400 322.200 C 314.400 321.870,314.670 321.600,315.000 321.600 C 315.330 321.600,315.600 321.330,315.600 321.000 C 315.600 320.670,315.870 320.400,316.200 320.400 C 316.530 320.400,316.800 320.130,316.800 319.800 C 316.800 319.470,317.070 319.200,317.400 319.200 C 317.730 319.200,318.000 318.930,318.000 318.600 C 318.000 318.270,318.270 318.000,318.600 318.000 C 318.930 318.000,319.200 317.730,319.200 317.400 C 319.200 317.070,319.470 316.800,319.800 316.800 C 320.130 316.800,320.400 316.530,320.400 316.200 C 320.400 315.870,320.670 315.600,321.000 315.600 C 321.330 315.600,321.600 315.330,321.600 315.000 C 321.600 314.670,321.870 314.400,322.200 314.400 C 322.530 314.400,322.800 314.130,322.800 313.800 C 322.800 313.470,323.070 313.200,323.400 313.200 C 323.730 313.200,324.000 312.996,324.000 312.746 C 324.000 312.496,324.450 311.875,325.000 311.365 C 325.550 310.855,326.000 310.070,326.000 309.619 C 326.000 309.158,326.262 308.800,326.600 308.800 C 326.930 308.800,327.200 308.530,327.200 308.200 C 327.200 307.870,327.470 307.600,327.800 307.600 C 328.130 307.600,328.400 307.330,328.400 307.000 C 328.400 306.670,328.670 306.400,329.000 306.400 C 329.330 306.400,329.600 306.130,329.600 305.800 C 329.600 305.470,329.870 305.200,330.200 305.200 C 330.530 305.200,330.800 304.949,330.800 304.643 C 330.800 304.336,331.070 303.982,331.400 303.855 C 331.730 303.729,332.000 303.169,332.000 302.613 C 332.000 301.979,332.225 301.600,332.600 301.600 C 332.930 301.600,333.200 301.330,333.200 301.000 C 333.200 300.670,333.470 300.400,333.800 300.400 C 334.130 300.400,334.400 300.130,334.400 299.800 C 334.400 299.470,334.568 299.200,334.773 299.200 C 334.978 299.200,335.269 298.812,335.420 298.338 C 335.570 297.863,336.123 297.078,336.647 296.592 C 337.186 296.092,337.600 295.251,337.600 294.654 C 337.600 293.984,337.818 293.600,338.200 293.600 C 338.530 293.600,338.800 293.330,338.800 293.000 C 338.800 292.670,339.070 292.400,339.400 292.400 C 339.800 292.400,340.000 292.000,340.000 291.200 C 340.000 290.400,340.200 290.000,340.600 290.000 C 340.930 290.000,341.200 289.730,341.200 289.400 C 341.200 289.070,341.470 288.800,341.800 288.800 C 342.166 288.800,342.400 288.427,342.400 287.843 C 342.400 287.316,342.670 286.782,343.000 286.655 C 343.330 286.529,343.600 285.969,343.600 285.413 C 343.600 284.779,343.825 284.400,344.200 284.400 C 344.530 284.400,344.800 284.149,344.800 283.843 C 344.800 283.536,345.070 283.182,345.400 283.055 C 345.730 282.929,346.000 282.389,346.000 281.855 C 346.000 281.322,346.270 280.782,346.600 280.655 C 346.930 280.529,347.200 279.969,347.200 279.413 C 347.200 278.779,347.425 278.400,347.800 278.400 C 348.200 278.400,348.400 278.000,348.400 277.200 C 348.400 276.400,348.600 276.000,349.000 276.000 C 349.373 276.000,349.600 275.622,349.600 275.000 C 349.600 274.450,349.780 274.000,350.000 274.000 C 350.220 274.000,350.400 273.460,350.400 272.800 C 350.400 272.000,350.600 271.600,351.000 271.600 C 351.400 271.600,351.600 271.200,351.600 270.400 C 351.600 269.600,351.800 269.200,352.200 269.200 C 352.600 269.200,352.800 268.800,352.800 268.000 C 352.800 267.200,353.000 266.800,353.400 266.800 C 353.844 266.800,354.000 266.333,354.000 265.000 C 354.000 263.667,354.156 263.200,354.600 263.200 C 354.966 263.200,355.200 262.827,355.200 262.243 C 355.200 261.716,355.470 261.182,355.800 261.055 C 356.196 260.903,356.400 260.277,356.400 259.213 C 356.400 258.046,356.566 257.600,357.000 257.600 C 357.444 257.600,357.600 257.133,357.600 255.800 C 357.600 254.467,357.756 254.000,358.200 254.000 C 358.644 254.000,358.800 253.533,358.800 252.200 C 358.800 250.867,358.956 250.400,359.400 250.400 C 359.831 250.400,360.000 249.960,360.000 248.843 C 360.000 247.828,360.209 247.205,360.600 247.055 C 361.033 246.889,361.200 246.210,361.200 244.613 C 361.200 242.913,361.339 242.400,361.800 242.400 C 362.267 242.400,362.400 241.867,362.400 240.000 C 362.400 238.667,362.578 237.600,362.800 237.600 C 363.020 237.600,363.200 236.629,363.200 235.443 C 363.200 233.894,363.369 233.221,363.800 233.055 C 364.268 232.876,364.400 232.077,364.400 229.413 C 364.400 226.646,364.514 226.000,365.000 226.000 C 365.499 226.000,365.600 225.222,365.600 221.400 C 365.600 217.578,365.701 216.800,366.200 216.800 C 366.724 216.800,366.800 214.621,366.800 199.587 C 366.800 184.656,366.720 182.344,366.200 182.145 C 365.715 181.959,365.600 181.039,365.600 177.357 C 365.600 173.573,365.498 172.800,365.000 172.800 C 364.520 172.800,364.400 172.200,364.400 169.800 C 364.400 167.400,364.280 166.800,363.800 166.800 C 363.324 166.800,363.200 166.222,363.200 164.000 C 363.200 162.400,363.029 161.200,362.800 161.200 C 362.580 161.200,362.400 160.204,362.400 158.987 C 362.400 157.390,362.233 156.711,361.800 156.545 C 361.379 156.383,361.200 155.727,361.200 154.345 C 361.200 152.963,361.021 152.306,360.600 152.145 C 360.193 151.988,360.000 151.350,360.000 150.157 C 360.000 148.862,359.842 148.400,359.400 148.400 C 358.956 148.400,358.800 147.933,358.800 146.600 C 358.800 145.267,358.644 144.800,358.200 144.800 C 357.766 144.800,357.600 144.354,357.600 143.187 C 357.600 142.123,357.396 141.497,357.000 141.345 C 356.628 141.202,356.400 140.593,356.400 139.745 C 356.400 138.896,356.172 138.287,355.800 138.145 C 355.458 138.013,355.200 137.417,355.200 136.757 C 355.200 135.995,354.995 135.600,354.600 135.600 C 354.200 135.600,354.000 135.200,354.000 134.400 C 354.000 133.600,353.800 133.200,353.400 133.200 C 352.966 133.200,352.800 132.754,352.800 131.587 C 352.800 130.523,352.596 129.897,352.200 129.745 C 351.870 129.618,351.600 129.078,351.600 128.545 C 351.600 128.011,351.330 127.471,351.000 127.345 C 350.670 127.218,350.400 126.684,350.400 126.157 C 350.400 125.631,350.220 125.200,350.000 125.200 C 349.780 125.200,349.600 124.744,349.600 124.187 C 349.600 123.631,349.330 123.071,349.000 122.945 C 348.670 122.818,348.400 122.278,348.400 121.745 C 348.400 121.211,348.130 120.671,347.800 120.545 C 347.470 120.418,347.200 119.996,347.200 119.606 C 347.200 119.217,346.930 118.674,346.600 118.400 C 346.270 118.126,346.000 117.654,346.000 117.351 C 346.000 117.048,345.730 116.800,345.400 116.800 C 345.027 116.800,344.800 116.422,344.800 115.800 C 344.800 115.178,344.573 114.800,344.200 114.800 C 343.800 114.800,343.600 114.400,343.600 113.600 C 343.600 112.800,343.400 112.400,343.000 112.400 C 342.670 112.400,342.400 112.130,342.400 111.800 C 342.400 111.470,342.130 111.200,341.800 111.200 C 341.400 111.200,341.200 110.800,341.200 110.000 C 341.200 109.200,341.000 108.800,340.600 108.800 C 340.225 108.800,340.000 108.421,340.000 107.787 C 340.000 107.231,339.730 106.671,339.400 106.545 C 339.070 106.418,338.800 106.064,338.800 105.757 C 338.800 105.451,338.530 105.200,338.200 105.200 C 337.827 105.200,337.600 104.822,337.600 104.200 C 337.600 103.650,337.420 103.200,337.200 103.200 C 336.980 103.200,336.800 102.930,336.800 102.600 C 336.800 102.270,336.530 102.000,336.200 102.000 C 335.870 102.000,335.600 101.730,335.600 101.400 C 335.600 101.070,335.330 100.800,335.000 100.800 C 334.625 100.800,334.400 100.421,334.400 99.787 C 334.400 99.231,334.130 98.671,333.800 98.545 C 333.470 98.418,333.200 98.064,333.200 97.757 C 333.200 97.451,332.930 97.200,332.600 97.200 C 332.270 97.200,332.000 96.930,332.000 96.600 C 332.000 96.270,331.730 96.000,331.400 96.000 C 331.025 96.000,330.800 95.621,330.800 94.987 C 330.800 94.431,330.530 93.871,330.200 93.745 C 329.870 93.618,329.600 93.264,329.600 92.957 C 329.600 92.651,329.420 92.400,329.200 92.400 C 328.681 92.400,327.200 90.919,327.200 90.400 C 327.200 90.180,326.930 90.000,326.600 90.000 C 326.270 90.000,326.000 89.820,326.000 89.600 C 326.000 89.380,325.730 89.200,325.400 89.200 C 325.070 89.200,324.800 88.930,324.800 88.600 C 324.800 88.270,324.640 88.000,324.443 88.000 C 324.247 88.000,323.968 87.526,323.822 86.947 C 323.549 85.858,316.800 78.800,316.032 78.800 C 315.795 78.800,315.600 78.620,315.600 78.400 C 315.600 77.881,314.119 76.400,313.600 76.400 C 313.380 76.400,313.200 76.130,313.200 75.800 C 313.200 75.427,312.822 75.200,312.200 75.200 C 311.578 75.200,311.200 74.973,311.200 74.600 C 311.200 74.270,310.930 74.000,310.600 74.000 C 310.270 74.000,310.000 73.730,310.000 73.400 C 310.000 73.070,309.730 72.800,309.400 72.800 C 309.070 72.800,308.800 72.530,308.800 72.200 C 308.800 71.870,308.530 71.600,308.200 71.600 C 307.870 71.600,307.600 71.330,307.600 71.000 C 307.600 70.670,307.375 70.392,307.100 70.383 C 306.825 70.374,306.158 69.834,305.619 69.183 C 305.053 68.500,304.249 68.000,303.719 68.000 C 303.169 68.000,302.800 67.759,302.800 67.400 C 302.800 67.070,302.611 66.800,302.381 66.800 C 302.150 66.800,301.545 66.350,301.035 65.800 C 300.525 65.250,299.724 64.800,299.254 64.800 C 298.762 64.800,298.400 64.546,298.400 64.200 C 298.400 63.870,298.130 63.600,297.800 63.600 C 297.470 63.600,297.200 63.330,297.200 63.000 C 297.200 62.600,296.800 62.400,296.000 62.400 C 295.200 62.400,294.800 62.200,294.800 61.800 C 294.800 61.470,294.530 61.200,294.200 61.200 C 293.870 61.200,293.600 60.930,293.600 60.600 C 293.600 60.270,293.349 60.000,293.043 60.000 C 292.736 60.000,292.382 59.730,292.255 59.400 C 292.129 59.070,291.569 58.800,291.013 58.800 C 290.379 58.800,290.000 58.575,290.000 58.200 C 290.000 57.800,289.600 57.600,288.800 57.600 C 288.140 57.600,287.600 57.420,287.600 57.200 C 287.600 56.522,286.042 55.200,285.243 55.200 C 284.826 55.200,284.382 54.930,284.255 54.600 C 284.129 54.270,283.569 54.000,283.013 54.000 C 282.379 54.000,282.000 53.775,282.000 53.400 C 282.000 53.070,281.730 52.800,281.400 52.800 C 281.070 52.800,280.800 52.620,280.800 52.400 C 280.800 52.180,280.260 52.000,279.600 52.000 C 278.800 52.000,278.400 51.800,278.400 51.400 C 278.400 51.000,278.000 50.800,277.200 50.800 C 276.400 50.800,276.000 50.600,276.000 50.200 C 276.000 49.834,275.627 49.600,275.043 49.600 C 274.516 49.600,273.982 49.330,273.855 49.000 C 273.729 48.670,273.189 48.400,272.655 48.400 C 272.122 48.400,271.582 48.130,271.455 47.800 C 271.303 47.404,270.677 47.200,269.613 47.200 C 268.446 47.200,268.000 47.034,268.000 46.600 C 268.000 46.200,267.600 46.000,266.800 46.000 C 266.000 46.000,265.600 45.800,265.600 45.400 C 265.600 45.000,265.200 44.800,264.400 44.800 C 263.600 44.800,263.200 44.600,263.200 44.200 C 263.200 43.767,262.756 43.600,261.600 43.600 C 260.444 43.600,260.000 43.433,260.000 43.000 C 260.000 42.604,259.604 42.400,258.833 42.400 C 258.192 42.400,257.605 42.216,257.530 41.991 C 257.455 41.765,256.675 41.468,255.797 41.330 C 254.919 41.192,254.056 40.836,253.880 40.539 C 253.698 40.232,252.881 40.000,251.980 40.000 C 251.111 40.000,250.400 39.820,250.400 39.600 C 250.400 39.380,249.410 39.200,248.200 39.200 C 246.511 39.200,246.000 39.061,246.000 38.600 C 246.000 38.156,245.533 38.000,244.200 38.000 C 242.867 38.000,242.400 37.844,242.400 37.400 C 242.400 36.933,241.867 36.800,240.000 36.800 C 238.133 36.800,237.600 36.667,237.600 36.200 C 237.600 35.725,237.027 35.600,234.843 35.600 C 232.761 35.600,232.029 35.453,231.855 35.000 C 231.676 34.532,230.877 34.400,228.213 34.400 C 225.446 34.400,224.800 34.286,224.800 33.800 C 224.800 33.297,223.956 33.200,219.600 33.200 C 215.244 33.200,214.400 33.103,214.400 32.600 C 214.400 32.077,212.467 32.000,199.400 32.000 C 186.333 32.000,184.400 32.077,184.400 32.600 M214.800 45.400 C 214.800 45.893,215.506 46.000,218.757 46.000 C 221.906 46.000,222.761 46.123,222.945 46.600 C 223.123 47.063,223.896 47.200,226.345 47.200 C 228.793 47.200,229.567 47.337,229.745 47.800 C 229.910 48.232,230.586 48.400,232.154 48.400 C 233.442 48.400,234.396 48.588,234.487 48.860 C 234.571 49.114,235.666 49.406,236.920 49.510 C 238.174 49.614,239.200 49.857,239.200 50.050 C 239.200 50.242,240.190 50.400,241.400 50.400 C 243.089 50.400,243.600 50.539,243.600 51.000 C 243.600 51.444,244.067 51.600,245.400 51.600 C 246.733 51.600,247.200 51.756,247.200 52.200 C 247.200 52.644,247.667 52.800,249.000 52.800 C 250.333 52.800,250.800 52.956,250.800 53.400 C 250.800 53.833,251.244 54.000,252.400 54.000 C 253.556 54.000,254.000 54.167,254.000 54.600 C 254.000 54.995,254.395 55.200,255.157 55.200 C 255.817 55.200,256.413 55.458,256.545 55.800 C 256.697 56.196,257.323 56.400,258.387 56.400 C 259.554 56.400,260.000 56.566,260.000 57.000 C 260.000 57.400,260.400 57.600,261.200 57.600 C 262.000 57.600,262.400 57.800,262.400 58.200 C 262.400 58.600,262.800 58.800,263.600 58.800 C 264.400 58.800,264.800 59.000,264.800 59.400 C 264.800 59.765,265.172 60.000,265.751 60.000 C 266.274 60.000,266.926 60.270,267.200 60.600 C 267.474 60.930,268.017 61.200,268.406 61.200 C 268.796 61.200,269.218 61.470,269.345 61.800 C 269.471 62.130,270.031 62.400,270.587 62.400 C 271.144 62.400,271.600 62.580,271.600 62.800 C 271.600 63.020,272.140 63.200,272.800 63.200 C 273.600 63.200,274.000 63.400,274.000 63.800 C 274.000 64.200,274.400 64.400,275.200 64.400 C 276.000 64.400,276.400 64.600,276.400 65.000 C 276.400 65.330,276.670 65.600,277.000 65.600 C 277.330 65.600,277.600 65.870,277.600 66.200 C 277.600 66.573,277.978 66.800,278.600 66.800 C 279.222 66.800,279.600 67.027,279.600 67.400 C 279.600 67.800,280.000 68.000,280.800 68.000 C 281.600 68.000,282.000 68.200,282.000 68.600 C 282.000 68.930,282.270 69.200,282.600 69.200 C 282.930 69.200,283.200 69.470,283.200 69.800 C 283.200 70.200,283.600 70.400,284.400 70.400 C 285.200 70.400,285.600 70.600,285.600 71.000 C 285.600 71.330,285.870 71.600,286.200 71.600 C 286.530 71.600,286.800 71.870,286.800 72.200 C 286.800 72.600,287.200 72.800,288.000 72.800 C 288.660 72.800,289.200 72.993,289.200 73.229 C 289.200 73.788,290.220 74.800,290.784 74.800 C 291.027 74.800,291.329 75.070,291.455 75.400 C 291.582 75.730,292.116 76.000,292.643 76.000 C 293.227 76.000,293.600 76.234,293.600 76.600 C 293.600 76.930,293.870 77.200,294.200 77.200 C 294.530 77.200,294.800 77.470,294.800 77.800 C 294.800 78.130,295.070 78.400,295.400 78.400 C 295.730 78.400,296.000 78.670,296.000 79.000 C 296.000 79.330,296.251 79.600,296.557 79.600 C 296.864 79.600,297.218 79.870,297.345 80.200 C 297.471 80.530,298.031 80.800,298.587 80.800 C 299.221 80.800,299.600 81.025,299.600 81.400 C 299.600 81.730,299.870 82.000,300.200 82.000 C 300.530 82.000,300.800 82.270,300.800 82.600 C 300.800 82.930,301.070 83.200,301.400 83.200 C 301.730 83.200,302.000 83.394,302.000 83.632 C 302.000 84.061,305.344 87.600,305.749 87.600 C 306.128 87.600,310.000 91.626,310.000 92.019 C 310.000 92.229,310.270 92.400,310.600 92.400 C 310.930 92.400,311.200 92.670,311.200 93.000 C 311.200 93.330,311.470 93.600,311.800 93.600 C 312.130 93.600,312.400 93.870,312.400 94.200 C 312.400 94.530,312.670 94.800,313.000 94.800 C 313.330 94.800,313.600 95.070,313.600 95.400 C 313.600 95.730,313.870 96.000,314.200 96.000 C 314.530 96.000,314.800 96.201,314.800 96.447 C 314.800 96.693,315.520 97.592,316.400 98.446 C 317.280 99.300,318.000 100.233,318.000 100.518 C 318.000 100.804,318.532 101.479,319.183 102.019 C 319.834 102.558,320.374 103.225,320.383 103.500 C 320.392 103.775,320.670 104.000,321.000 104.000 C 321.330 104.000,321.600 104.270,321.600 104.600 C 321.600 104.930,321.870 105.200,322.200 105.200 C 322.575 105.200,322.800 105.579,322.800 106.213 C 322.800 106.769,323.070 107.329,323.400 107.455 C 323.730 107.582,324.000 107.936,324.000 108.243 C 324.000 108.549,324.270 108.800,324.600 108.800 C 324.930 108.800,325.200 109.070,325.200 109.400 C 325.200 109.730,325.470 110.000,325.800 110.000 C 326.173 110.000,326.400 110.378,326.400 111.000 C 326.400 111.550,326.580 112.000,326.800 112.000 C 327.020 112.000,327.200 112.270,327.200 112.600 C 327.200 112.930,327.470 113.200,327.800 113.200 C 328.130 113.200,328.400 113.547,328.400 113.971 C 328.400 114.396,328.670 115.013,329.000 115.343 C 329.330 115.673,329.600 116.136,329.600 116.371 C 329.600 116.607,329.870 116.800,330.200 116.800 C 330.575 116.800,330.800 117.179,330.800 117.813 C 330.800 118.369,331.070 118.929,331.400 119.055 C 331.730 119.182,332.000 119.722,332.000 120.255 C 332.000 120.789,332.270 121.329,332.600 121.455 C 332.930 121.582,333.200 121.936,333.200 122.243 C 333.200 122.549,333.470 122.800,333.800 122.800 C 334.173 122.800,334.400 123.178,334.400 123.800 C 334.400 124.422,334.627 124.800,335.000 124.800 C 335.400 124.800,335.600 125.200,335.600 126.000 C 335.600 126.800,335.800 127.200,336.200 127.200 C 336.600 127.200,336.800 127.600,336.800 128.400 C 336.800 129.200,337.000 129.600,337.400 129.600 C 337.775 129.600,338.000 129.979,338.000 130.613 C 338.000 131.169,338.270 131.729,338.600 131.855 C 338.930 131.982,339.200 132.506,339.200 133.019 C 339.200 133.533,339.380 134.064,339.600 134.200 C 339.820 134.336,340.000 134.775,340.000 135.175 C 340.000 135.575,340.270 136.126,340.600 136.400 C 340.930 136.674,341.200 137.326,341.200 137.849 C 341.200 138.428,341.435 138.800,341.800 138.800 C 342.234 138.800,342.400 139.246,342.400 140.413 C 342.400 141.477,342.604 142.103,343.000 142.255 C 343.342 142.387,343.600 142.983,343.600 143.643 C 343.600 144.405,343.805 144.800,344.200 144.800 C 344.634 144.800,344.800 145.246,344.800 146.413 C 344.800 147.477,345.004 148.103,345.400 148.255 C 345.772 148.398,346.000 149.007,346.000 149.855 C 346.000 150.704,346.228 151.313,346.600 151.455 C 347.007 151.612,347.200 152.250,347.200 153.443 C 347.200 154.738,347.358 155.200,347.800 155.200 C 348.244 155.200,348.400 155.667,348.400 157.000 C 348.400 158.333,348.556 158.800,349.000 158.800 C 349.461 158.800,349.600 159.311,349.600 161.000 C 349.600 162.689,349.739 163.200,350.200 163.200 C 350.667 163.200,350.800 163.733,350.800 165.600 C 350.800 167.467,350.933 168.000,351.400 168.000 C 351.886 168.000,352.000 168.644,352.000 171.400 C 352.000 173.400,352.165 174.800,352.400 174.800 C 352.636 174.800,352.800 176.241,352.800 178.324 C 352.800 180.802,352.974 182.077,353.387 182.624 C 354.279 183.803,354.291 216.603,353.400 216.945 C 352.922 217.128,352.800 217.990,352.800 221.187 C 352.800 223.596,352.640 225.200,352.400 225.200 C 352.171 225.200,352.000 226.400,352.000 228.000 C 352.000 230.222,351.876 230.800,351.400 230.800 C 350.933 230.800,350.800 231.333,350.800 233.200 C 350.800 235.067,350.667 235.600,350.200 235.600 C 349.741 235.600,349.600 236.106,349.600 237.757 C 349.600 239.306,349.431 239.979,349.000 240.145 C 348.608 240.295,348.400 240.918,348.400 241.945 C 348.400 242.971,348.192 243.594,347.800 243.745 C 347.367 243.911,347.200 244.590,347.200 246.187 C 347.200 247.887,347.061 248.400,346.600 248.400 C 346.205 248.400,346.000 248.795,346.000 249.557 C 346.000 250.217,345.742 250.813,345.400 250.945 C 345.028 251.087,344.800 251.696,344.800 252.545 C 344.800 253.393,344.572 254.002,344.200 254.145 C 343.804 254.297,343.600 254.923,343.600 255.987 C 343.600 257.154,343.434 257.600,343.000 257.600 C 342.605 257.600,342.400 257.995,342.400 258.757 C 342.400 259.417,342.142 260.013,341.800 260.145 C 341.470 260.271,341.200 260.753,341.200 261.216 C 341.200 261.679,340.930 262.327,340.600 262.657 C 340.270 262.987,340.000 263.784,340.000 264.429 C 340.000 265.073,339.820 265.600,339.600 265.600 C 339.380 265.600,339.200 266.140,339.200 266.800 C 339.200 267.600,339.000 268.000,338.600 268.000 C 338.200 268.000,338.000 268.400,338.000 269.200 C 338.000 270.000,337.800 270.400,337.400 270.400 C 337.070 270.400,336.800 270.651,336.800 270.957 C 336.800 271.264,336.530 271.618,336.200 271.745 C 335.870 271.871,335.600 272.431,335.600 272.987 C 335.600 273.621,335.375 274.000,335.000 274.000 C 334.600 274.000,334.400 274.400,334.400 275.200 C 334.400 276.000,334.200 276.400,333.800 276.400 C 333.427 276.400,333.200 276.778,333.200 277.400 C 333.200 278.022,332.973 278.400,332.600 278.400 C 332.270 278.400,332.000 278.593,332.000 278.829 C 332.000 279.064,331.730 279.527,331.400 279.857 C 331.070 280.187,330.800 280.804,330.800 281.229 C 330.800 281.653,330.530 282.000,330.200 282.000 C 329.800 282.000,329.600 282.400,329.600 283.200 C 329.600 284.000,329.400 284.400,329.000 284.400 C 328.670 284.400,328.400 284.651,328.400 284.957 C 328.400 285.264,328.130 285.618,327.800 285.745 C 327.470 285.871,327.200 286.431,327.200 286.987 C 327.200 287.544,327.020 288.000,326.800 288.000 C 326.580 288.000,326.400 288.270,326.400 288.600 C 326.400 288.930,326.220 289.200,326.000 289.200 C 325.306 289.200,324.000 290.767,324.000 291.600 C 324.000 292.044,323.733 292.400,323.400 292.400 C 323.070 292.400,322.800 292.670,322.800 293.000 C 322.800 293.330,322.530 293.600,322.200 293.600 C 321.870 293.600,321.600 293.851,321.600 294.157 C 321.600 294.464,321.330 294.818,321.000 294.945 C 320.670 295.071,320.400 295.631,320.400 296.187 C 320.400 296.821,320.175 297.200,319.800 297.200 C 319.470 297.200,319.200 297.470,319.200 297.800 C 319.200 298.130,318.930 298.400,318.600 298.400 C 318.270 298.400,318.000 298.670,318.000 299.000 C 318.000 299.330,317.730 299.600,317.400 299.600 C 317.070 299.600,316.800 299.789,316.800 300.019 C 316.800 300.250,315.540 301.681,314.000 303.200 C 312.343 304.834,311.200 306.296,311.200 306.781 C 311.200 307.242,310.938 307.600,310.600 307.600 C 310.270 307.600,310.000 307.870,310.000 308.200 C 310.000 308.530,309.730 308.800,309.400 308.800 C 309.070 308.800,308.800 309.070,308.800 309.400 C 308.800 309.730,308.530 310.000,308.200 310.000 C 307.870 310.000,307.600 310.270,307.600 310.600 C 307.600 310.930,307.330 311.200,307.000 311.200 C 306.670 311.200,306.400 311.470,306.400 311.800 C 306.400 312.130,306.048 312.400,305.618 312.400 C 305.187 312.400,303.837 313.390,302.617 314.600 C 301.398 315.810,300.220 316.800,300.000 316.800 C 299.780 316.800,299.600 317.070,299.600 317.400 C 299.600 317.730,299.330 318.000,299.000 318.000 C 298.670 318.000,298.400 318.270,298.400 318.600 C 298.400 318.930,298.130 319.200,297.800 319.200 C 297.470 319.200,297.200 319.470,297.200 319.800 C 297.200 320.175,296.821 320.400,296.187 320.400 C 295.631 320.400,295.071 320.670,294.945 321.000 C 294.818 321.330,294.464 321.600,294.157 321.600 C 293.851 321.600,293.600 321.870,293.600 322.200 C 293.600 322.530,293.330 322.800,293.000 322.800 C 292.670 322.800,292.400 323.070,292.400 323.400 C 292.400 323.733,292.044 324.000,291.600 324.000 C 290.767 324.000,289.200 325.306,289.200 326.000 C 289.200 326.220,288.930 326.400,288.600 326.400 C 288.270 326.400,288.000 326.580,288.000 326.800 C 288.000 327.020,287.544 327.200,286.987 327.200 C 286.431 327.200,285.871 327.470,285.745 327.800 C 285.618 328.130,285.264 328.400,284.957 328.400 C 284.651 328.400,284.400 328.670,284.400 329.000 C 284.400 329.400,284.000 329.600,283.200 329.600 C 282.400 329.600,282.000 329.800,282.000 330.200 C 282.000 330.530,281.646 330.800,281.214 330.800 C 280.781 330.800,279.875 331.340,279.200 332.000 C 278.525 332.660,277.619 333.200,277.186 333.200 C 276.754 333.200,276.400 333.470,276.400 333.800 C 276.400 334.200,276.000 334.400,275.200 334.400 C 274.400 334.400,274.000 334.600,274.000 335.000 C 274.000 335.330,273.730 335.600,273.400 335.600 C 273.070 335.600,272.800 335.870,272.800 336.200 C 272.800 336.600,272.400 336.800,271.600 336.800 C 270.800 336.800,270.400 337.000,270.400 337.400 C 270.400 337.800,270.000 338.000,269.200 338.000 C 268.400 338.000,268.000 338.200,268.000 338.600 C 268.000 339.000,267.600 339.200,266.800 339.200 C 266.140 339.200,265.600 339.380,265.600 339.600 C 265.600 339.820,265.073 340.000,264.429 340.000 C 263.784 340.000,262.987 340.270,262.657 340.600 C 262.327 340.930,261.679 341.200,261.216 341.200 C 260.753 341.200,260.271 341.470,260.145 341.800 C 260.013 342.142,259.417 342.400,258.757 342.400 C 257.995 342.400,257.600 342.605,257.600 343.000 C 257.600 343.420,257.176 343.600,256.187 343.600 C 255.301 343.600,254.689 343.823,254.545 344.200 C 254.413 344.542,253.817 344.800,253.157 344.800 C 252.395 344.800,252.000 345.005,252.000 345.400 C 252.000 345.844,251.533 346.000,250.200 346.000 C 248.867 346.000,248.400 346.156,248.400 346.600 C 248.400 347.044,247.933 347.200,246.600 347.200 C 245.267 347.200,244.800 347.356,244.800 347.800 C 244.800 348.261,244.289 348.400,242.600 348.400 C 240.911 348.400,240.400 348.539,240.400 349.000 C 240.400 349.444,239.933 349.600,238.600 349.600 C 237.267 349.600,236.800 349.756,236.800 350.200 C 236.800 350.680,236.200 350.800,233.800 350.800 C 231.400 350.800,230.800 350.920,230.800 351.400 C 230.800 351.876,230.222 352.000,228.000 352.000 C 226.400 352.000,225.200 352.171,225.200 352.400 C 225.200 352.638,223.683 352.800,221.449 352.800 C 218.603 352.800,217.578 352.945,217.200 353.400 C 216.449 354.305,182.203 354.305,181.855 353.400 C 181.673 352.925,180.832 352.800,177.813 352.800 C 175.538 352.800,174.000 352.639,174.000 352.400 C 174.000 352.169,172.733 352.000,171.000 352.000 C 168.600 352.000,168.000 351.880,168.000 351.400 C 168.000 350.933,167.467 350.800,165.600 350.800 C 163.733 350.800,163.200 350.667,163.200 350.200 C 163.200 349.739,162.689 349.600,161.000 349.600 C 159.311 349.600,158.800 349.461,158.800 349.000 C 158.800 348.533,158.267 348.400,156.400 348.400 C 154.533 348.400,154.000 348.267,154.000 347.800 C 154.000 347.356,153.533 347.200,152.200 347.200 C 150.867 347.200,150.400 347.044,150.400 346.600 C 150.400 346.167,149.956 346.000,148.800 346.000 C 147.644 346.000,147.200 345.833,147.200 345.400 C 147.200 345.005,146.805 344.800,146.043 344.800 C 145.383 344.800,144.787 344.542,144.655 344.200 C 144.503 343.804,143.877 343.600,142.813 343.600 C 141.646 343.600,141.200 343.434,141.200 343.000 C 141.200 342.605,140.805 342.400,140.043 342.400 C 139.383 342.400,138.787 342.142,138.655 341.800 C 138.529 341.470,138.047 341.200,137.584 341.200 C 137.121 341.200,136.473 340.930,136.143 340.600 C 135.813 340.270,135.016 340.000,134.371 340.000 C 133.727 340.000,133.200 339.820,133.200 339.600 C 133.200 339.380,132.660 339.200,132.000 339.200 C 131.200 339.200,130.800 339.000,130.800 338.600 C 130.800 338.200,130.400 338.000,129.600 338.000 C 128.800 338.000,128.400 337.800,128.400 337.400 C 128.400 337.070,128.130 336.800,127.800 336.800 C 127.470 336.800,127.200 336.530,127.200 336.200 C 127.200 335.800,126.800 335.600,126.000 335.600 C 125.200 335.600,124.800 335.400,124.800 335.000 C 124.800 334.627,124.422 334.400,123.800 334.400 C 123.178 334.400,122.800 334.173,122.800 333.800 C 122.800 333.400,122.400 333.200,121.600 333.200 C 120.800 333.200,120.400 333.000,120.400 332.600 C 120.400 332.270,120.149 332.000,119.843 332.000 C 119.536 332.000,119.182 331.730,119.055 331.400 C 118.929 331.070,118.369 330.800,117.813 330.800 C 117.179 330.800,116.800 330.575,116.800 330.200 C 116.800 329.870,116.607 329.600,116.371 329.600 C 116.136 329.600,115.673 329.330,115.343 329.000 C 115.013 328.670,114.396 328.400,113.971 328.400 C 113.547 328.400,113.200 328.130,113.200 327.800 C 113.200 327.470,112.930 327.200,112.600 327.200 C 112.270 327.200,112.000 327.020,112.000 326.800 C 112.000 326.580,111.550 326.400,111.000 326.400 C 110.378 326.400,110.000 326.173,110.000 325.800 C 110.000 325.470,109.749 325.200,109.443 325.200 C 109.136 325.200,108.782 324.930,108.655 324.600 C 108.529 324.270,107.969 324.000,107.413 324.000 C 106.779 324.000,106.400 323.775,106.400 323.400 C 106.400 323.070,106.130 322.800,105.800 322.800 C 105.470 322.800,105.200 322.530,105.200 322.200 C 105.200 321.870,104.930 321.600,104.600 321.600 C 104.270 321.600,104.000 321.330,104.000 321.000 C 104.000 320.670,103.749 320.400,103.443 320.400 C 103.136 320.400,102.782 320.130,102.655 319.800 C 102.529 319.470,101.969 319.200,101.413 319.200 C 100.856 319.200,100.400 319.006,100.400 318.768 C 100.400 318.339,97.056 314.800,96.651 314.800 C 96.272 314.800,92.400 310.774,92.400 310.381 C 92.400 310.171,92.224 310.000,92.008 310.000 C 91.530 310.000,84.400 302.824,84.400 302.343 C 84.400 302.154,84.130 302.000,83.800 302.000 C 83.470 302.000,83.200 301.730,83.200 301.400 C 83.200 301.070,82.930 300.800,82.600 300.800 C 82.270 300.800,82.000 300.530,82.000 300.200 C 82.000 299.870,81.730 299.600,81.400 299.600 C 81.070 299.600,80.800 299.330,80.800 299.000 C 80.800 298.670,80.530 298.400,80.200 298.400 C 79.825 298.400,79.600 298.021,79.600 297.387 C 79.600 296.831,79.330 296.271,79.000 296.145 C 78.670 296.018,78.400 295.664,78.400 295.357 C 78.400 295.051,78.130 294.800,77.800 294.800 C 77.470 294.800,77.200 294.530,77.200 294.200 C 77.200 293.870,76.930 293.600,76.600 293.600 C 76.270 293.600,76.000 293.330,76.000 293.000 C 76.000 292.670,75.730 292.400,75.400 292.400 C 75.048 292.400,74.795 292.028,74.787 291.500 C 74.773 290.468,73.928 289.200,73.256 289.200 C 73.005 289.200,72.800 288.744,72.800 288.187 C 72.800 287.631,72.530 287.071,72.200 286.945 C 71.870 286.818,71.600 286.464,71.600 286.157 C 71.600 285.851,71.330 285.600,71.000 285.600 C 70.625 285.600,70.400 285.221,70.400 284.587 C 70.400 284.031,70.130 283.471,69.800 283.345 C 69.470 283.218,69.200 282.864,69.200 282.557 C 69.200 282.251,68.930 282.000,68.600 282.000 C 68.225 282.000,68.000 281.621,68.000 280.987 C 68.000 280.431,67.730 279.871,67.400 279.745 C 67.070 279.618,66.800 279.264,66.800 278.957 C 66.800 278.651,66.530 278.400,66.200 278.400 C 65.827 278.400,65.600 278.022,65.600 277.400 C 65.600 276.778,65.373 276.400,65.000 276.400 C 64.600 276.400,64.400 276.000,64.400 275.200 C 64.400 274.400,64.200 274.000,63.800 274.000 C 63.400 274.000,63.200 273.600,63.200 272.800 C 63.200 272.140,63.065 271.598,62.900 271.596 C 62.735 271.594,62.161 270.604,61.624 269.396 C 61.087 268.188,60.502 267.200,60.324 267.200 C 60.146 267.200,60.000 266.744,60.000 266.187 C 60.000 265.631,59.730 265.071,59.400 264.945 C 59.058 264.813,58.800 264.217,58.800 263.557 C 58.800 262.795,58.595 262.400,58.200 262.400 C 57.800 262.400,57.600 262.000,57.600 261.200 C 57.600 260.400,57.400 260.000,57.000 260.000 C 56.566 260.000,56.400 259.554,56.400 258.387 C 56.400 257.323,56.196 256.697,55.800 256.545 C 55.470 256.418,55.200 255.878,55.200 255.345 C 55.200 254.811,54.930 254.271,54.600 254.145 C 54.209 253.995,54.000 253.372,54.000 252.357 C 54.000 251.240,53.831 250.800,53.400 250.800 C 52.956 250.800,52.800 250.333,52.800 249.000 C 52.800 247.667,52.644 247.200,52.200 247.200 C 51.756 247.200,51.600 246.733,51.600 245.400 C 51.600 244.067,51.444 243.600,51.000 243.600 C 50.556 243.600,50.400 243.133,50.400 241.800 C 50.400 240.810,50.220 240.000,50.000 240.000 C 49.780 240.000,49.600 239.094,49.600 237.987 C 49.600 236.568,49.423 235.907,49.000 235.745 C 48.564 235.577,48.400 234.892,48.400 233.234 C 48.400 231.848,48.170 230.648,47.813 230.176 C 47.435 229.677,47.221 228.437,47.213 226.700 C 47.203 224.572,47.073 224.000,46.600 224.000 C 46.107 224.000,46.000 223.287,46.000 219.987 C 46.000 216.790,45.878 215.928,45.400 215.745 C 44.492 215.396,44.492 183.200,45.400 183.200 C 45.895 183.200,46.000 182.467,46.000 179.000 C 46.000 175.533,46.105 174.800,46.600 174.800 C 47.075 174.800,47.200 174.227,47.200 172.043 C 47.200 169.961,47.347 169.229,47.800 169.055 C 48.255 168.881,48.400 168.144,48.400 166.013 C 48.400 163.779,48.524 163.200,49.000 163.200 C 49.432 163.200,49.600 162.758,49.600 161.624 C 49.600 160.757,49.780 159.936,50.000 159.800 C 50.220 159.664,50.400 158.573,50.400 157.376 C 50.400 155.708,50.540 155.200,51.000 155.200 C 51.444 155.200,51.600 154.733,51.600 153.400 C 51.600 152.067,51.756 151.600,52.200 151.600 C 52.631 151.600,52.800 151.160,52.800 150.043 C 52.800 149.028,53.009 148.405,53.400 148.255 C 53.796 148.103,54.000 147.477,54.000 146.413 C 54.000 145.246,54.166 144.800,54.600 144.800 C 55.000 144.800,55.200 144.400,55.200 143.600 C 55.200 142.800,55.400 142.400,55.800 142.400 C 56.244 142.400,56.400 141.933,56.400 140.600 C 56.400 139.267,56.556 138.800,57.000 138.800 C 57.366 138.800,57.600 138.427,57.600 137.843 C 57.600 137.316,57.870 136.782,58.200 136.655 C 58.530 136.529,58.800 135.989,58.800 135.455 C 58.800 134.922,59.070 134.382,59.400 134.255 C 59.730 134.129,60.000 133.589,60.000 133.055 C 60.000 132.522,60.270 131.982,60.600 131.855 C 60.930 131.729,61.200 131.189,61.200 130.655 C 61.200 130.122,61.470 129.582,61.800 129.455 C 62.130 129.329,62.400 128.769,62.400 128.213 C 62.400 127.656,62.580 127.200,62.800 127.200 C 63.020 127.200,63.200 126.660,63.200 126.000 C 63.200 125.200,63.400 124.800,63.800 124.800 C 64.173 124.800,64.400 124.422,64.400 123.800 C 64.400 123.178,64.627 122.800,65.000 122.800 C 65.330 122.800,65.600 122.549,65.600 122.243 C 65.600 121.936,65.870 121.582,66.200 121.455 C 66.530 121.329,66.800 120.769,66.800 120.213 C 66.800 119.579,67.025 119.200,67.400 119.200 C 67.800 119.200,68.000 118.800,68.000 118.000 C 68.000 117.200,68.200 116.800,68.600 116.800 C 68.930 116.800,69.200 116.530,69.200 116.200 C 69.200 115.870,69.470 115.600,69.800 115.600 C 70.200 115.600,70.400 115.200,70.400 114.400 C 70.400 113.740,70.578 113.200,70.795 113.200 C 71.577 113.200,72.800 111.804,72.800 110.911 C 72.800 110.368,73.042 110.000,73.400 110.000 C 73.730 110.000,74.000 109.730,74.000 109.400 C 74.000 109.070,74.180 108.800,74.400 108.800 C 74.620 108.800,74.800 108.549,74.800 108.243 C 74.800 107.936,75.070 107.582,75.400 107.455 C 75.730 107.329,76.000 106.769,76.000 106.213 C 76.000 105.579,76.225 105.200,76.600 105.200 C 76.930 105.200,77.200 104.930,77.200 104.600 C 77.200 104.270,77.470 104.000,77.800 104.000 C 78.130 104.000,78.400 103.730,78.400 103.400 C 78.400 103.070,78.670 102.800,79.000 102.800 C 79.330 102.800,79.600 102.549,79.600 102.243 C 79.600 101.936,79.870 101.582,80.200 101.455 C 80.530 101.329,80.800 100.859,80.800 100.413 C 80.800 99.957,81.064 99.600,81.400 99.600 C 81.730 99.600,82.000 99.420,82.000 99.200 C 82.000 98.681,83.481 97.200,84.000 97.200 C 84.220 97.200,84.400 97.020,84.400 96.800 C 84.400 96.579,85.120 95.700,86.000 94.846 C 86.880 93.992,87.600 93.093,87.600 92.847 C 87.600 92.601,87.870 92.400,88.200 92.400 C 88.530 92.400,88.800 92.130,88.800 91.800 C 88.800 91.470,89.070 91.200,89.400 91.200 C 89.730 91.200,90.000 90.930,90.000 90.600 C 90.000 90.270,90.270 90.000,90.600 90.000 C 90.930 90.000,91.200 89.730,91.200 89.400 C 91.200 89.070,91.470 88.800,91.800 88.800 C 92.130 88.800,92.400 88.530,92.400 88.200 C 92.400 87.870,92.601 87.600,92.847 87.600 C 93.093 87.600,93.992 86.880,94.846 86.000 C 95.700 85.120,96.579 84.400,96.800 84.400 C 97.020 84.400,97.200 84.220,97.200 84.000 C 97.200 83.481,98.681 82.000,99.200 82.000 C 99.420 82.000,99.600 81.730,99.600 81.400 C 99.600 81.064,99.957 80.800,100.413 80.800 C 100.859 80.800,101.329 80.530,101.455 80.200 C 101.582 79.870,101.936 79.600,102.243 79.600 C 102.549 79.600,102.800 79.330,102.800 79.000 C 102.800 78.670,103.070 78.400,103.400 78.400 C 103.730 78.400,104.000 78.130,104.000 77.800 C 104.000 77.470,104.270 77.200,104.600 77.200 C 104.930 77.200,105.200 76.930,105.200 76.600 C 105.200 76.225,105.579 76.000,106.213 76.000 C 106.769 76.000,107.329 75.730,107.455 75.400 C 107.582 75.070,107.936 74.800,108.243 74.800 C 108.549 74.800,108.800 74.620,108.800 74.400 C 108.800 74.180,109.070 74.000,109.400 74.000 C 109.730 74.000,110.000 73.730,110.000 73.400 C 110.000 73.042,110.368 72.800,110.911 72.800 C 111.804 72.800,113.200 71.577,113.200 70.795 C 113.200 70.578,113.740 70.400,114.400 70.400 C 115.200 70.400,115.600 70.200,115.600 69.800 C 115.600 69.470,115.870 69.200,116.200 69.200 C 116.530 69.200,116.800 68.930,116.800 68.600 C 116.800 68.200,117.200 68.000,118.000 68.000 C 118.800 68.000,119.200 67.800,119.200 67.400 C 119.200 67.025,119.579 66.800,120.213 66.800 C 120.769 66.800,121.329 66.530,121.455 66.200 C 121.582 65.870,121.936 65.600,122.243 65.600 C 122.549 65.600,122.800 65.330,122.800 65.000 C 122.800 64.627,123.178 64.400,123.800 64.400 C 124.422 64.400,124.800 64.173,124.800 63.800 C 124.800 63.400,125.200 63.200,126.000 63.200 C 126.660 63.200,127.200 63.020,127.200 62.800 C 127.200 62.580,127.656 62.400,128.213 62.400 C 128.769 62.400,129.329 62.130,129.455 61.800 C 129.582 61.470,130.122 61.200,130.655 61.200 C 131.189 61.200,131.729 60.930,131.855 60.600 C 131.982 60.270,132.522 60.000,133.055 60.000 C 133.589 60.000,134.129 59.730,134.255 59.400 C 134.382 59.070,134.922 58.800,135.455 58.800 C 135.989 58.800,136.529 58.530,136.655 58.200 C 136.782 57.870,137.316 57.600,137.843 57.600 C 138.427 57.600,138.800 57.366,138.800 57.000 C 138.800 56.556,139.267 56.400,140.600 56.400 C 141.933 56.400,142.400 56.244,142.400 55.800 C 142.400 55.400,142.800 55.200,143.600 55.200 C 144.400 55.200,144.800 55.000,144.800 54.600 C 144.800 54.166,145.246 54.000,146.413 54.000 C 147.477 54.000,148.103 53.796,148.255 53.400 C 148.405 53.009,149.028 52.800,150.043 52.800 C 151.160 52.800,151.600 52.631,151.600 52.200 C 151.600 51.756,152.067 51.600,153.400 51.600 C 154.733 51.600,155.200 51.444,155.200 51.000 C 155.200 50.540,155.708 50.400,157.376 50.400 C 158.573 50.400,159.664 50.220,159.800 50.000 C 159.936 49.780,160.834 49.600,161.795 49.600 C 162.815 49.600,163.793 49.350,164.143 49.000 C 164.519 48.623,165.503 48.400,166.784 48.400 C 168.229 48.400,168.892 48.225,169.055 47.800 C 169.233 47.337,170.007 47.200,172.455 47.200 C 174.904 47.200,175.677 47.063,175.855 46.600 C 176.039 46.122,176.896 46.000,180.055 46.000 C 183.215 46.000,184.072 45.878,184.255 45.400 C 184.454 44.881,186.539 44.800,199.643 44.800 C 212.849 44.800,214.800 44.877,214.800 45.400 M182.700 54.269 C 182.315 54.373,182.000 54.625,182.000 54.829 C 182.000 55.033,180.200 55.200,178.000 55.200 C 174.711 55.200,174.000 55.307,174.000 55.800 C 174.000 56.276,173.421 56.400,171.187 56.400 C 169.056 56.400,168.319 56.545,168.145 57.000 C 167.979 57.431,167.306 57.600,165.757 57.600 C 164.106 57.600,163.600 57.741,163.600 58.200 C 163.600 58.667,163.067 58.800,161.200 58.800 C 159.333 58.800,158.800 58.933,158.800 59.400 C 158.800 59.844,158.333 60.000,157.000 60.000 C 155.667 60.000,155.200 60.156,155.200 60.600 C 155.200 61.033,154.756 61.200,153.600 61.200 C 152.444 61.200,152.000 61.367,152.000 61.800 C 152.000 62.244,151.533 62.400,150.200 62.400 C 148.867 62.400,148.400 62.556,148.400 63.000 C 148.400 63.444,147.933 63.600,146.600 63.600 C 145.267 63.600,144.800 63.756,144.800 64.200 C 144.800 64.600,144.400 64.800,143.600 64.800 C 142.940 64.800,142.400 64.980,142.400 65.200 C 142.400 65.420,141.873 65.600,141.229 65.600 C 140.584 65.600,139.787 65.870,139.457 66.200 C 139.127 66.530,138.479 66.800,138.016 66.800 C 137.553 66.800,137.071 67.070,136.945 67.400 C 136.813 67.742,136.217 68.000,135.557 68.000 C 134.795 68.000,134.400 68.205,134.400 68.600 C 134.400 68.975,134.021 69.200,133.387 69.200 C 132.831 69.200,132.271 69.470,132.145 69.800 C 132.018 70.130,131.478 70.400,130.945 70.400 C 130.411 70.400,129.871 70.670,129.745 71.000 C 129.618 71.330,129.084 71.600,128.557 71.600 C 127.973 71.600,127.600 71.834,127.600 72.200 C 127.600 72.530,127.330 72.800,127.000 72.800 C 126.670 72.800,126.400 73.070,126.400 73.400 C 126.400 73.800,126.000 74.000,125.200 74.000 C 124.400 74.000,124.000 74.200,124.000 74.600 C 124.000 74.975,123.621 75.200,122.987 75.200 C 122.431 75.200,121.871 75.470,121.745 75.800 C 121.618 76.130,121.264 76.400,120.957 76.400 C 120.651 76.400,120.400 76.560,120.400 76.757 C 120.400 76.953,119.981 77.218,119.469 77.347 C 118.957 77.476,118.047 78.035,117.448 78.590 C 116.849 79.146,116.092 79.600,115.767 79.600 C 115.441 79.600,115.071 79.870,114.945 80.200 C 114.818 80.530,114.464 80.800,114.157 80.800 C 113.851 80.800,113.600 81.070,113.600 81.400 C 113.600 81.730,113.330 82.000,113.000 82.000 C 112.670 82.000,112.400 82.270,112.400 82.600 C 112.400 82.975,112.021 83.200,111.387 83.200 C 110.831 83.200,110.271 83.470,110.145 83.800 C 110.018 84.130,109.664 84.400,109.357 84.400 C 109.051 84.400,108.800 84.670,108.800 85.000 C 108.800 85.330,108.530 85.600,108.200 85.600 C 107.870 85.600,107.600 85.870,107.600 86.200 C 107.600 86.530,107.330 86.800,107.000 86.800 C 106.670 86.800,106.400 87.070,106.400 87.400 C 106.400 87.766,106.027 88.000,105.443 88.000 C 104.916 88.000,104.382 88.270,104.255 88.600 C 104.129 88.930,103.827 89.200,103.584 89.200 C 103.020 89.200,102.000 90.212,102.000 90.771 C 102.000 91.007,101.730 91.200,101.400 91.200 C 101.070 91.200,100.800 91.470,100.800 91.800 C 100.800 92.130,100.530 92.400,100.200 92.400 C 99.870 92.400,99.600 92.670,99.600 93.000 C 99.600 93.330,99.330 93.600,99.000 93.600 C 98.670 93.600,98.400 93.870,98.400 94.200 C 98.400 94.530,98.130 94.800,97.800 94.800 C 97.470 94.800,97.200 95.070,97.200 95.400 C 97.200 95.730,96.930 96.000,96.600 96.000 C 96.270 96.000,96.000 96.270,96.000 96.600 C 96.000 96.930,95.730 97.200,95.400 97.200 C 95.070 97.200,94.800 97.470,94.800 97.800 C 94.800 98.130,94.530 98.400,94.200 98.400 C 93.870 98.400,93.600 98.670,93.600 99.000 C 93.600 99.330,93.330 99.600,93.000 99.600 C 92.670 99.600,92.400 99.870,92.400 100.200 C 92.400 100.530,92.130 100.800,91.800 100.800 C 91.470 100.800,91.200 101.070,91.200 101.400 C 91.200 101.730,91.007 102.000,90.771 102.000 C 90.223 102.000,89.430 102.802,89.090 103.700 C 88.944 104.085,88.639 104.400,88.413 104.400 C 88.186 104.400,88.000 104.850,88.000 105.400 C 88.000 106.022,87.773 106.400,87.400 106.400 C 87.070 106.400,86.800 106.670,86.800 107.000 C 86.800 107.330,86.530 107.600,86.200 107.600 C 85.870 107.600,85.600 107.870,85.600 108.200 C 85.600 108.530,85.330 108.800,85.000 108.800 C 84.670 108.800,84.400 109.070,84.400 109.400 C 84.400 109.730,84.130 110.000,83.800 110.000 C 83.400 110.000,83.200 110.400,83.200 111.200 C 83.200 112.000,83.000 112.400,82.600 112.400 C 82.270 112.400,82.000 112.670,82.000 113.000 C 82.000 113.330,81.730 113.600,81.400 113.600 C 81.070 113.600,80.800 113.851,80.800 114.157 C 80.800 114.464,80.530 114.818,80.200 114.945 C 79.870 115.071,79.600 115.444,79.600 115.774 C 79.600 116.103,79.060 116.925,78.400 117.600 C 77.740 118.275,77.200 119.181,77.200 119.614 C 77.200 120.046,77.020 120.400,76.800 120.400 C 76.580 120.400,76.400 120.651,76.400 120.957 C 76.400 121.264,76.130 121.618,75.800 121.745 C 75.470 121.871,75.200 122.431,75.200 122.987 C 75.200 123.621,74.975 124.000,74.600 124.000 C 74.200 124.000,74.000 124.400,74.000 125.200 C 74.000 126.000,73.800 126.400,73.400 126.400 C 73.070 126.400,72.800 126.670,72.800 127.000 C 72.800 127.330,72.530 127.600,72.200 127.600 C 71.834 127.600,71.600 127.973,71.600 128.557 C 71.600 129.084,71.330 129.618,71.000 129.745 C 70.670 129.871,70.400 130.411,70.400 130.945 C 70.400 131.478,70.130 132.018,69.800 132.145 C 69.470 132.271,69.200 132.831,69.200 133.387 C 69.200 134.021,68.975 134.400,68.600 134.400 C 68.205 134.400,68.000 134.795,68.000 135.557 C 68.000 136.217,67.742 136.813,67.400 136.945 C 67.070 137.071,66.800 137.553,66.800 138.016 C 66.800 138.479,66.530 139.127,66.200 139.457 C 65.870 139.787,65.600 140.584,65.600 141.229 C 65.600 141.873,65.420 142.400,65.200 142.400 C 64.980 142.400,64.800 142.940,64.800 143.600 C 64.800 144.400,64.600 144.800,64.200 144.800 C 63.756 144.800,63.600 145.267,63.600 146.600 C 63.600 147.933,63.444 148.400,63.000 148.400 C 62.600 148.400,62.400 148.800,62.400 149.600 C 62.400 150.400,62.200 150.800,61.800 150.800 C 61.356 150.800,61.200 151.267,61.200 152.600 C 61.200 153.933,61.044 154.400,60.600 154.400 C 60.139 154.400,60.000 154.911,60.000 156.600 C 60.000 158.289,59.861 158.800,59.400 158.800 C 58.958 158.800,58.800 159.262,58.800 160.557 C 58.800 161.750,58.607 162.388,58.200 162.545 C 57.751 162.717,57.600 163.434,57.600 165.387 C 57.600 167.443,57.472 168.000,57.000 168.000 C 56.520 168.000,56.400 168.600,56.400 171.000 C 56.400 173.400,56.280 174.000,55.800 174.000 C 55.307 174.000,55.200 174.706,55.200 177.957 C 55.200 181.141,55.080 181.960,54.588 182.149 C 53.759 182.467,53.870 217.624,54.700 217.900 C 55.047 218.016,55.200 219.095,55.200 221.433 C 55.200 224.159,55.314 224.800,55.800 224.800 C 56.286 224.800,56.400 225.446,56.400 228.213 C 56.400 230.877,56.532 231.676,57.000 231.855 C 57.431 232.021,57.600 232.696,57.600 234.255 C 57.600 235.815,57.769 236.490,58.200 236.655 C 58.621 236.817,58.800 237.473,58.800 238.855 C 58.800 240.237,58.979 240.894,59.400 241.055 C 59.807 241.212,60.000 241.850,60.000 243.043 C 60.000 244.338,60.158 244.800,60.600 244.800 C 61.034 244.800,61.200 245.246,61.200 246.413 C 61.200 247.477,61.404 248.103,61.800 248.255 C 62.191 248.405,62.400 249.028,62.400 250.043 C 62.400 251.160,62.569 251.600,63.000 251.600 C 63.400 251.600,63.600 252.000,63.600 252.800 C 63.600 253.600,63.800 254.000,64.200 254.000 C 64.644 254.000,64.800 254.467,64.800 255.800 C 64.800 256.790,64.980 257.600,65.200 257.600 C 65.420 257.600,65.600 257.947,65.600 258.371 C 65.600 258.796,65.870 259.413,66.200 259.743 C 66.530 260.073,66.800 260.721,66.800 261.184 C 66.800 261.647,67.070 262.129,67.400 262.255 C 67.730 262.382,68.000 262.916,68.000 263.443 C 68.000 264.027,68.234 264.400,68.600 264.400 C 69.000 264.400,69.200 264.800,69.200 265.600 C 69.200 266.400,69.400 266.800,69.800 266.800 C 70.200 266.800,70.400 267.200,70.400 268.000 C 70.400 268.800,70.600 269.200,71.000 269.200 C 71.375 269.200,71.600 269.579,71.600 270.213 C 71.600 270.769,71.870 271.329,72.200 271.455 C 72.530 271.582,72.800 272.116,72.800 272.643 C 72.800 273.227,73.034 273.600,73.400 273.600 C 73.730 273.600,74.000 273.870,74.000 274.200 C 74.000 274.530,74.270 274.800,74.600 274.800 C 75.000 274.800,75.200 275.200,75.200 276.000 C 75.200 276.800,75.400 277.200,75.800 277.200 C 76.182 277.200,76.400 277.584,76.400 278.254 C 76.400 278.851,76.814 279.692,77.353 280.192 C 77.877 280.678,78.429 281.460,78.578 281.931 C 78.727 282.401,79.558 283.524,80.425 284.426 C 81.291 285.328,82.000 286.411,82.000 286.833 C 82.000 287.255,82.270 287.600,82.600 287.600 C 82.930 287.600,83.200 287.870,83.200 288.200 C 83.200 288.530,83.470 288.800,83.800 288.800 C 84.130 288.800,84.400 289.070,84.400 289.400 C 84.400 289.730,84.670 290.000,85.000 290.000 C 85.400 290.000,85.600 290.400,85.600 291.200 C 85.600 291.860,85.780 292.400,86.000 292.400 C 86.519 292.400,88.000 293.881,88.000 294.400 C 88.000 294.620,88.270 294.800,88.600 294.800 C 88.930 294.800,89.200 295.001,89.200 295.247 C 89.200 295.493,89.920 296.392,90.800 297.246 C 91.680 298.100,92.400 298.979,92.400 299.200 C 92.400 299.420,92.670 299.600,93.000 299.600 C 93.330 299.600,93.600 299.780,93.600 300.000 C 93.600 300.220,93.870 300.400,94.200 300.400 C 94.530 300.400,94.800 300.670,94.800 301.000 C 94.800 301.330,95.070 301.600,95.400 301.600 C 95.730 301.600,96.000 301.870,96.000 302.200 C 96.000 302.530,96.270 302.800,96.600 302.800 C 96.930 302.800,97.200 303.070,97.200 303.400 C 97.200 303.730,97.470 304.000,97.800 304.000 C 98.130 304.000,98.400 304.270,98.400 304.600 C 98.400 304.930,98.670 305.200,99.000 305.200 C 99.330 305.200,99.600 305.470,99.600 305.800 C 99.600 306.130,99.870 306.400,100.200 306.400 C 100.530 306.400,100.800 306.670,100.800 307.000 C 100.800 307.330,101.070 307.600,101.400 307.600 C 101.730 307.600,102.000 307.809,102.000 308.065 C 102.000 308.924,106.888 313.200,107.869 313.200 C 108.430 313.200,108.800 313.439,108.800 313.800 C 108.800 314.130,109.070 314.400,109.400 314.400 C 109.730 314.400,110.000 314.670,110.000 315.000 C 110.000 315.330,110.270 315.600,110.600 315.600 C 110.930 315.600,111.200 315.870,111.200 316.200 C 111.200 316.600,111.600 316.800,112.400 316.800 C 113.200 316.800,113.600 317.000,113.600 317.400 C 113.600 317.730,113.870 318.000,114.200 318.000 C 114.530 318.000,114.800 318.270,114.800 318.600 C 114.800 318.930,115.070 319.200,115.400 319.200 C 115.730 319.200,116.000 319.470,116.000 319.800 C 116.000 320.173,116.378 320.400,117.000 320.400 C 117.622 320.400,118.000 320.627,118.000 321.000 C 118.000 321.330,118.276 321.600,118.613 321.600 C 118.949 321.600,119.329 321.870,119.455 322.200 C 119.582 322.530,120.097 322.800,120.600 322.800 C 121.103 322.800,121.618 323.070,121.745 323.400 C 121.871 323.730,122.431 324.000,122.987 324.000 C 123.544 324.000,124.000 324.180,124.000 324.400 C 124.000 324.620,124.270 324.800,124.600 324.800 C 124.930 324.800,125.200 325.070,125.200 325.400 C 125.200 325.773,125.578 326.000,126.200 326.000 C 126.822 326.000,127.200 326.227,127.200 326.600 C 127.200 327.000,127.600 327.200,128.400 327.200 C 129.200 327.200,129.600 327.400,129.600 327.800 C 129.600 328.200,130.000 328.400,130.800 328.400 C 131.600 328.400,132.000 328.600,132.000 329.000 C 132.000 329.400,132.400 329.600,133.200 329.600 C 134.000 329.600,134.400 329.800,134.400 330.200 C 134.400 330.600,134.800 330.800,135.600 330.800 C 136.400 330.800,136.800 331.000,136.800 331.400 C 136.800 331.800,137.200 332.000,138.000 332.000 C 138.800 332.000,139.200 332.200,139.200 332.600 C 139.200 332.975,139.579 333.200,140.213 333.200 C 140.769 333.200,141.329 333.470,141.455 333.800 C 141.605 334.191,142.228 334.400,143.243 334.400 C 144.360 334.400,144.800 334.569,144.800 335.000 C 144.800 335.395,145.195 335.600,145.957 335.600 C 146.617 335.600,147.213 335.858,147.345 336.200 C 147.497 336.596,148.123 336.800,149.187 336.800 C 150.074 336.800,150.800 336.980,150.800 337.200 C 150.800 337.420,151.501 337.600,152.357 337.600 C 153.372 337.600,153.995 337.809,154.145 338.200 C 154.297 338.596,154.923 338.800,155.987 338.800 C 157.154 338.800,157.600 338.966,157.600 339.400 C 157.600 339.867,158.133 340.000,160.000 340.000 C 161.867 340.000,162.400 340.133,162.400 340.600 C 162.400 341.059,162.906 341.200,164.557 341.200 C 166.106 341.200,166.779 341.369,166.945 341.800 C 167.119 342.255,167.856 342.400,169.987 342.400 C 172.221 342.400,172.800 342.524,172.800 343.000 C 172.800 343.486,173.440 343.600,176.157 343.600 C 178.772 343.600,179.565 343.733,179.745 344.200 C 179.945 344.722,182.523 344.800,199.587 344.800 C 216.754 344.800,219.200 344.725,219.200 344.200 C 219.200 343.714,219.844 343.600,222.600 343.600 C 225.356 343.600,226.000 343.486,226.000 343.000 C 226.000 342.520,226.600 342.400,229.000 342.400 C 231.400 342.400,232.000 342.280,232.000 341.800 C 232.000 341.333,232.533 341.200,234.400 341.200 C 236.267 341.200,236.800 341.067,236.800 340.600 C 236.800 340.139,237.311 340.000,239.000 340.000 C 240.689 340.000,241.200 339.861,241.200 339.400 C 241.200 338.956,241.667 338.800,243.000 338.800 C 244.333 338.800,244.800 338.644,244.800 338.200 C 244.800 337.756,245.267 337.600,246.600 337.600 C 247.590 337.600,248.400 337.420,248.400 337.200 C 248.400 336.980,249.021 336.800,249.780 336.800 C 250.539 336.800,251.304 336.557,251.480 336.261 C 251.656 335.964,252.519 335.608,253.397 335.470 C 254.275 335.332,255.055 335.035,255.130 334.809 C 255.205 334.584,255.707 334.400,256.246 334.400 C 256.784 334.400,257.329 334.130,257.455 333.800 C 257.587 333.458,258.183 333.200,258.843 333.200 C 259.605 333.200,260.000 332.995,260.000 332.600 C 260.000 332.200,260.400 332.000,261.200 332.000 C 262.000 332.000,262.400 331.800,262.400 331.400 C 262.400 331.027,262.778 330.800,263.400 330.800 C 264.022 330.800,264.400 330.573,264.400 330.200 C 264.400 329.800,264.800 329.600,265.600 329.600 C 266.400 329.600,266.800 329.400,266.800 329.000 C 266.800 328.600,267.200 328.400,268.000 328.400 C 268.800 328.400,269.200 328.200,269.200 327.800 C 269.200 327.400,269.600 327.200,270.400 327.200 C 271.200 327.200,271.600 327.000,271.600 326.600 C 271.600 326.225,271.979 326.000,272.613 326.000 C 273.169 326.000,273.729 325.730,273.855 325.400 C 273.982 325.070,274.516 324.800,275.043 324.800 C 275.569 324.800,276.000 324.620,276.000 324.400 C 276.000 324.180,276.270 324.000,276.600 324.000 C 276.930 324.000,277.200 323.730,277.200 323.400 C 277.200 323.025,277.579 322.800,278.213 322.800 C 278.769 322.800,279.329 322.530,279.455 322.200 C 279.582 321.870,279.936 321.600,280.243 321.600 C 280.549 321.600,280.800 321.330,280.800 321.000 C 280.800 320.625,281.179 320.400,281.813 320.400 C 282.369 320.400,282.929 320.130,283.055 319.800 C 283.182 319.470,283.536 319.200,283.843 319.200 C 284.149 319.200,284.400 318.930,284.400 318.600 C 284.400 318.270,284.670 318.000,285.000 318.000 C 285.330 318.000,285.600 317.730,285.600 317.400 C 285.600 317.027,285.978 316.800,286.600 316.800 C 287.222 316.800,287.600 316.573,287.600 316.200 C 287.600 315.870,287.870 315.600,288.200 315.600 C 288.530 315.600,288.800 315.330,288.800 315.000 C 288.800 314.670,289.070 314.400,289.400 314.400 C 289.730 314.400,290.000 314.130,290.000 313.800 C 290.000 313.420,290.383 313.200,291.047 313.200 C 291.743 313.200,292.614 312.664,293.646 311.600 C 294.500 310.720,295.379 310.000,295.600 310.000 C 295.820 310.000,296.000 309.730,296.000 309.400 C 296.000 309.070,296.270 308.800,296.600 308.800 C 296.930 308.800,297.200 308.530,297.200 308.200 C 297.200 307.870,297.470 307.600,297.800 307.600 C 298.130 307.600,298.400 307.330,298.400 307.000 C 298.400 306.670,298.670 306.400,299.000 306.400 C 299.330 306.400,299.600 306.130,299.600 305.800 C 299.600 305.427,299.978 305.200,300.600 305.200 C 301.222 305.200,301.600 304.973,301.600 304.600 C 301.600 304.270,301.870 304.000,302.200 304.000 C 302.530 304.000,302.800 303.730,302.800 303.400 C 302.800 303.070,303.070 302.800,303.400 302.800 C 303.730 302.800,304.000 302.530,304.000 302.200 C 304.000 301.870,304.270 301.600,304.600 301.600 C 304.973 301.600,305.200 301.222,305.200 300.600 C 305.200 299.978,305.427 299.600,305.800 299.600 C 306.130 299.600,306.400 299.330,306.400 299.000 C 306.400 298.670,306.670 298.400,307.000 298.400 C 307.330 298.400,307.600 298.130,307.600 297.800 C 307.600 297.470,307.870 297.200,308.200 297.200 C 308.530 297.200,308.800 296.930,308.800 296.600 C 308.800 296.270,309.070 296.000,309.400 296.000 C 309.730 296.000,310.000 295.820,310.000 295.600 C 310.000 295.379,310.720 294.500,311.600 293.646 C 312.664 292.614,313.200 291.743,313.200 291.047 C 313.200 290.383,313.420 290.000,313.800 290.000 C 314.130 290.000,314.400 289.730,314.400 289.400 C 314.400 289.070,314.670 288.800,315.000 288.800 C 315.330 288.800,315.600 288.530,315.600 288.200 C 315.600 287.870,315.870 287.600,316.200 287.600 C 316.573 287.600,316.800 287.222,316.800 286.600 C 316.800 285.978,317.027 285.600,317.400 285.600 C 317.730 285.600,318.000 285.330,318.000 285.000 C 318.000 284.670,318.270 284.400,318.600 284.400 C 318.930 284.400,319.200 284.149,319.200 283.843 C 319.200 283.536,319.470 283.182,319.800 283.055 C 320.130 282.929,320.400 282.369,320.400 281.813 C 320.400 281.179,320.625 280.800,321.000 280.800 C 321.330 280.800,321.600 280.549,321.600 280.243 C 321.600 279.936,321.870 279.582,322.200 279.455 C 322.530 279.329,322.800 278.769,322.800 278.213 C 322.800 277.579,323.025 277.200,323.400 277.200 C 323.789 277.200,324.000 276.811,324.000 276.095 C 324.000 275.383,324.356 274.723,325.000 274.239 C 325.572 273.809,326.000 273.084,326.000 272.544 C 326.000 271.972,326.236 271.600,326.600 271.600 C 327.000 271.600,327.200 271.200,327.200 270.400 C 327.200 269.600,327.400 269.200,327.800 269.200 C 328.200 269.200,328.400 268.800,328.400 268.000 C 328.400 267.200,328.600 266.800,329.000 266.800 C 329.400 266.800,329.600 266.400,329.600 265.600 C 329.600 264.800,329.800 264.400,330.200 264.400 C 330.573 264.400,330.800 264.022,330.800 263.400 C 330.800 262.778,331.027 262.400,331.400 262.400 C 331.800 262.400,332.000 262.000,332.000 261.200 C 332.000 260.400,332.200 260.000,332.600 260.000 C 332.995 260.000,333.200 259.605,333.200 258.843 C 333.200 258.183,333.458 257.587,333.800 257.455 C 334.196 257.303,334.400 256.677,334.400 255.613 C 334.400 254.446,334.566 254.000,335.000 254.000 C 335.395 254.000,335.600 253.605,335.600 252.843 C 335.600 252.183,335.858 251.587,336.200 251.455 C 336.577 251.311,336.800 250.699,336.800 249.813 C 336.800 249.036,336.980 248.400,337.200 248.400 C 337.420 248.400,337.600 247.590,337.600 246.600 C 337.600 245.267,337.756 244.800,338.200 244.800 C 338.644 244.800,338.800 244.333,338.800 243.000 C 338.800 241.667,338.956 241.200,339.400 241.200 C 339.859 241.200,340.000 240.694,340.000 239.043 C 340.000 237.494,340.169 236.821,340.600 236.655 C 341.033 236.489,341.200 235.810,341.200 234.213 C 341.200 232.513,341.339 232.000,341.800 232.000 C 342.280 232.000,342.400 231.400,342.400 229.000 C 342.400 226.600,342.520 226.000,343.000 226.000 C 343.493 226.000,343.600 225.289,343.600 222.000 C 343.600 218.711,343.707 218.000,344.200 218.000 C 344.725 218.000,344.800 215.667,344.800 199.400 C 344.800 183.133,344.725 180.800,344.200 180.800 C 343.709 180.800,343.600 180.110,343.600 176.987 C 343.600 173.968,343.475 173.127,343.000 172.945 C 342.547 172.771,342.400 172.039,342.400 169.957 C 342.400 167.773,342.275 167.200,341.800 167.200 C 341.333 167.200,341.200 166.667,341.200 164.800 C 341.200 162.933,341.067 162.400,340.600 162.400 C 340.139 162.400,340.000 161.887,340.000 160.187 C 340.000 158.590,339.833 157.911,339.400 157.745 C 339.008 157.594,338.800 156.971,338.800 155.945 C 338.800 154.918,338.592 154.295,338.200 154.145 C 337.809 153.995,337.600 153.372,337.600 152.357 C 337.600 151.501,337.444 150.800,337.253 150.800 C 337.062 150.800,336.803 150.039,336.678 149.109 C 336.554 148.178,336.260 147.353,336.026 147.275 C 335.792 147.197,335.600 146.693,335.600 146.154 C 335.600 145.616,335.330 145.071,335.000 144.945 C 334.628 144.802,334.400 144.193,334.400 143.345 C 334.400 142.496,334.172 141.887,333.800 141.745 C 333.458 141.613,333.200 141.017,333.200 140.357 C 333.200 139.595,332.995 139.200,332.600 139.200 C 332.200 139.200,332.000 138.800,332.000 138.000 C 332.000 137.200,331.800 136.800,331.400 136.800 C 331.000 136.800,330.800 136.400,330.800 135.600 C 330.800 134.800,330.600 134.400,330.200 134.400 C 329.800 134.400,329.600 134.000,329.600 133.200 C 329.600 132.400,329.400 132.000,329.000 132.000 C 328.600 132.000,328.400 131.600,328.400 130.800 C 328.400 130.000,328.200 129.600,327.800 129.600 C 327.425 129.600,327.200 129.221,327.200 128.587 C 327.200 128.031,326.930 127.471,326.600 127.345 C 326.270 127.218,326.000 126.684,326.000 126.157 C 326.000 125.573,325.766 125.200,325.400 125.200 C 325.070 125.200,324.800 124.930,324.800 124.600 C 324.800 124.270,324.620 124.000,324.400 124.000 C 324.180 124.000,324.000 123.544,324.000 122.987 C 324.000 122.431,323.730 121.871,323.400 121.745 C 323.070 121.618,322.800 121.264,322.800 120.957 C 322.800 120.651,322.530 120.400,322.200 120.400 C 321.825 120.400,321.600 120.021,321.600 119.387 C 321.600 118.831,321.330 118.271,321.000 118.145 C 320.670 118.018,320.400 117.664,320.400 117.357 C 320.400 117.051,320.130 116.800,319.800 116.800 C 319.427 116.800,319.200 116.422,319.200 115.800 C 319.200 115.178,318.973 114.800,318.600 114.800 C 318.270 114.800,318.000 114.530,318.000 114.200 C 318.000 113.870,317.730 113.600,317.400 113.600 C 317.000 113.600,316.800 113.200,316.800 112.400 C 316.800 111.600,316.600 111.200,316.200 111.200 C 315.870 111.200,315.600 110.930,315.600 110.600 C 315.600 110.270,315.330 110.000,315.000 110.000 C 314.670 110.000,314.400 109.730,314.400 109.400 C 314.400 109.070,314.130 108.800,313.800 108.800 C 313.470 108.800,313.200 108.530,313.200 108.200 C 313.200 107.870,313.040 107.600,312.843 107.600 C 312.647 107.600,312.378 107.195,312.245 106.700 C 311.961 105.641,308.715 102.000,308.055 102.000 C 307.805 102.000,307.600 101.730,307.600 101.400 C 307.600 101.070,307.330 100.800,307.000 100.800 C 306.670 100.800,306.400 100.530,306.400 100.200 C 306.400 99.870,306.130 99.600,305.800 99.600 C 305.470 99.600,305.200 99.330,305.200 99.000 C 305.200 98.670,304.930 98.400,304.600 98.400 C 304.270 98.400,304.000 98.130,304.000 97.800 C 304.000 97.470,303.730 97.200,303.400 97.200 C 303.070 97.200,302.800 96.930,302.800 96.600 C 302.800 96.270,302.530 96.000,302.200 96.000 C 301.870 96.000,301.600 95.730,301.600 95.400 C 301.600 95.070,301.330 94.800,301.000 94.800 C 300.670 94.800,300.400 94.606,300.400 94.368 C 300.400 93.805,295.795 89.200,295.232 89.200 C 294.994 89.200,294.800 88.930,294.800 88.600 C 294.800 88.270,294.549 88.000,294.243 88.000 C 293.936 88.000,293.582 87.730,293.455 87.400 C 293.329 87.070,292.769 86.800,292.213 86.800 C 291.579 86.800,291.200 86.575,291.200 86.200 C 291.200 85.870,290.930 85.600,290.600 85.600 C 290.270 85.600,290.000 85.330,290.000 85.000 C 290.000 84.670,289.730 84.400,289.400 84.400 C 289.070 84.400,288.800 84.130,288.800 83.800 C 288.800 83.427,288.422 83.200,287.800 83.200 C 287.178 83.200,286.800 82.973,286.800 82.600 C 286.800 82.270,286.631 82.000,286.425 82.000 C 286.218 82.000,285.458 81.460,284.736 80.800 C 284.013 80.140,283.102 79.600,282.711 79.600 C 282.320 79.600,282.000 79.330,282.000 79.000 C 282.000 78.670,281.749 78.400,281.443 78.400 C 281.136 78.400,280.782 78.130,280.655 77.800 C 280.529 77.470,279.969 77.200,279.413 77.200 C 278.856 77.200,278.400 77.020,278.400 76.800 C 278.400 76.580,278.130 76.400,277.800 76.400 C 277.470 76.400,277.200 76.130,277.200 75.800 C 277.200 75.400,276.800 75.200,276.000 75.200 C 275.200 75.200,274.800 75.000,274.800 74.600 C 274.800 74.227,274.422 74.000,273.800 74.000 C 273.178 74.000,272.800 73.773,272.800 73.400 C 272.800 73.070,272.549 72.800,272.243 72.800 C 271.936 72.800,271.582 72.530,271.455 72.200 C 271.329 71.870,270.769 71.600,270.213 71.600 C 269.579 71.600,269.200 71.375,269.200 71.000 C 269.200 70.600,268.800 70.400,268.000 70.400 C 267.200 70.400,266.800 70.200,266.800 69.800 C 266.800 69.400,266.400 69.200,265.600 69.200 C 264.800 69.200,264.400 69.000,264.400 68.600 C 264.400 68.235,264.028 68.000,263.449 68.000 C 262.926 68.000,262.274 67.730,262.000 67.400 C 261.726 67.070,261.209 66.794,260.851 66.787 C 260.493 66.780,259.851 66.510,259.424 66.187 C 258.996 65.864,258.141 65.600,257.524 65.600 C 256.906 65.600,256.400 65.420,256.400 65.200 C 256.400 64.980,255.860 64.800,255.200 64.800 C 254.400 64.800,254.000 64.600,254.000 64.200 C 254.000 63.756,253.533 63.600,252.200 63.600 C 250.867 63.600,250.400 63.444,250.400 63.000 C 250.400 62.600,250.000 62.400,249.200 62.400 C 248.400 62.400,248.000 62.200,248.000 61.800 C 248.000 61.369,247.560 61.200,246.443 61.200 C 245.428 61.200,244.805 60.991,244.655 60.600 C 244.489 60.167,243.810 60.000,242.213 60.000 C 240.513 60.000,240.000 59.861,240.000 59.400 C 240.000 58.941,239.494 58.800,237.843 58.800 C 236.294 58.800,235.621 58.631,235.455 58.200 C 235.289 57.767,234.610 57.600,233.013 57.600 C 231.313 57.600,230.800 57.461,230.800 57.000 C 230.800 56.520,230.200 56.400,227.800 56.400 C 225.400 56.400,224.800 56.280,224.800 55.800 C 224.800 55.307,224.093 55.200,220.833 55.200 C 218.015 55.200,216.818 55.055,216.700 54.700 C 216.535 54.204,184.443 53.798,182.700 54.269 M224.000 129.000 C 224.000 129.330,223.730 129.600,223.400 129.600 C 223.000 129.600,222.800 130.000,222.800 130.800 C 222.800 131.600,222.600 132.000,222.200 132.000 C 221.870 132.000,221.600 132.270,221.600 132.600 C 221.600 132.930,221.330 133.200,221.000 133.200 C 220.600 133.200,220.400 133.600,220.400 134.400 C 220.400 135.200,220.200 135.600,219.800 135.600 C 219.400 135.600,219.200 136.000,219.200 136.800 C 219.200 137.600,219.000 138.000,218.600 138.000 C 218.270 138.000,218.000 138.270,218.000 138.600 C 218.000 138.930,217.823 139.200,217.608 139.200 C 217.392 139.200,217.106 139.637,216.972 140.171 C 216.837 140.705,216.474 141.239,216.164 141.359 C 215.854 141.478,215.600 142.031,215.600 142.587 C 215.600 143.144,215.420 143.600,215.200 143.600 C 214.980 143.600,214.800 143.851,214.800 144.157 C 214.800 144.464,214.530 144.818,214.200 144.945 C 213.870 145.071,213.600 145.631,213.600 146.187 C 213.600 146.821,213.375 147.200,213.000 147.200 C 212.600 147.200,212.400 147.600,212.400 148.400 C 212.400 149.200,212.200 149.600,211.800 149.600 C 211.470 149.600,211.200 149.870,211.200 150.200 C 211.200 150.530,210.930 150.800,210.600 150.800 C 210.234 150.800,210.000 151.173,210.000 151.757 C 210.000 152.284,209.730 152.818,209.400 152.945 C 209.070 153.071,208.800 153.631,208.800 154.187 C 208.800 154.821,208.575 155.200,208.200 155.200 C 207.870 155.200,207.600 155.451,207.600 155.757 C 207.600 156.064,207.330 156.418,207.000 156.545 C 206.670 156.671,206.400 157.211,206.400 157.745 C 206.400 158.278,206.130 158.818,205.800 158.945 C 205.470 159.071,205.200 159.631,205.200 160.187 C 205.200 160.821,204.975 161.200,204.600 161.200 C 204.270 161.200,204.000 161.393,204.000 161.629 C 204.000 161.864,203.730 162.327,203.400 162.657 C 203.070 162.987,202.800 163.604,202.800 164.029 C 202.800 164.453,202.620 164.800,202.400 164.800 C 202.180 164.800,202.000 165.250,202.000 165.800 C 202.000 166.422,201.773 166.800,201.400 166.800 C 201.000 166.800,200.800 167.200,200.800 168.000 C 200.800 168.800,200.600 169.200,200.200 169.200 C 199.870 169.200,199.600 169.470,199.600 169.800 C 199.600 170.130,199.330 170.400,199.000 170.400 C 198.600 170.400,198.400 170.800,198.400 171.600 C 198.400 172.400,198.200 172.800,197.800 172.800 C 197.400 172.800,197.200 173.200,197.200 174.000 C 197.200 174.800,197.000 175.200,196.600 175.200 C 196.270 175.200,196.000 175.470,196.000 175.800 C 196.000 176.130,195.730 176.400,195.400 176.400 C 195.034 176.400,194.800 176.773,194.800 177.357 C 194.800 177.884,194.530 178.418,194.200 178.545 C 193.805 178.696,193.600 179.322,193.600 180.380 L 193.600 181.986 203.239 182.093 L 212.878 182.200 211.858 183.300 C 211.297 183.905,210.650 184.400,210.419 184.400 C 210.189 184.400,210.000 184.571,210.000 184.780 C 210.000 185.277,198.077 197.200,197.580 197.200 C 197.371 197.200,197.200 197.367,197.200 197.571 C 197.200 197.775,195.850 199.300,194.200 200.961 C 192.550 202.622,191.200 204.255,191.200 204.590 C 191.200 204.926,190.930 205.200,190.600 205.200 C 190.270 205.200,190.000 205.470,190.000 205.800 C 190.000 206.130,189.820 206.400,189.600 206.400 C 189.380 206.400,189.200 206.670,189.200 207.000 C 189.200 207.330,188.930 207.600,188.600 207.600 C 188.270 207.600,188.000 207.870,188.000 208.200 C 188.000 208.530,187.730 208.800,187.400 208.800 C 187.070 208.800,186.800 209.070,186.800 209.400 C 186.800 209.730,186.530 210.000,186.200 210.000 C 185.870 210.000,185.600 210.270,185.600 210.600 C 185.600 210.930,185.330 211.200,185.000 211.200 C 184.670 211.200,184.400 211.470,184.400 211.800 C 184.400 212.130,184.130 212.400,183.800 212.400 C 183.470 212.400,183.200 212.670,183.200 213.000 C 183.200 213.330,182.930 213.600,182.600 213.600 C 182.270 213.600,182.000 213.870,182.000 214.200 C 182.000 214.530,181.730 214.800,181.400 214.800 C 181.070 214.800,180.800 214.980,180.800 215.200 C 180.800 215.420,180.530 215.600,180.200 215.600 C 179.870 215.600,179.600 215.780,179.600 216.000 C 179.600 216.519,178.119 218.000,177.600 218.000 C 177.380 218.000,177.200 218.270,177.200 218.600 C 177.200 218.930,177.020 219.200,176.800 219.200 C 176.580 219.200,176.400 219.470,176.400 219.800 C 176.400 220.130,176.130 220.400,175.800 220.400 C 175.470 220.400,175.200 220.670,175.200 221.000 C 175.200 221.330,174.930 221.600,174.600 221.600 C 174.270 221.600,174.000 221.870,174.000 222.200 C 174.000 222.530,173.730 222.800,173.400 222.800 C 173.070 222.800,172.800 223.070,172.800 223.400 C 172.800 223.730,172.530 224.000,172.200 224.000 C 171.870 224.000,171.600 224.270,171.600 224.600 C 171.600 224.930,171.330 225.200,171.000 225.200 C 170.670 225.200,170.400 225.470,170.400 225.800 C 170.400 226.130,170.130 226.400,169.800 226.400 C 169.470 226.400,169.200 226.580,169.200 226.800 C 169.200 227.020,168.930 227.200,168.600 227.200 C 168.270 227.200,168.000 227.380,168.000 227.600 C 168.000 227.821,167.280 228.700,166.400 229.554 C 165.520 230.408,164.800 231.307,164.800 231.553 C 164.800 231.799,164.530 232.000,164.200 232.000 C 163.870 232.000,163.600 232.270,163.600 232.600 C 163.600 232.930,163.330 233.200,163.000 233.200 C 162.670 233.200,162.400 233.470,162.400 233.800 C 162.400 234.130,162.130 234.400,161.800 234.400 C 161.470 234.400,161.200 234.670,161.200 235.000 C 161.200 235.330,160.930 235.600,160.600 235.600 C 160.270 235.600,160.000 235.870,160.000 236.200 C 160.000 236.530,159.730 236.800,159.400 236.800 C 159.070 236.800,158.800 237.070,158.800 237.400 C 158.800 237.730,158.530 238.000,158.200 238.000 C 157.870 238.000,157.600 238.270,157.600 238.600 C 157.600 238.930,157.406 239.200,157.168 239.200 C 156.605 239.200,152.000 243.805,152.000 244.368 C 152.000 244.606,151.730 244.800,151.400 244.800 C 151.070 244.800,150.800 245.070,150.800 245.400 C 150.800 245.730,150.530 246.000,150.200 246.000 C 149.870 246.000,149.600 246.270,149.600 246.600 C 149.600 246.930,149.330 247.200,149.000 247.200 C 148.670 247.200,148.400 247.470,148.400 247.800 C 148.400 248.130,148.130 248.400,147.800 248.400 C 147.470 248.400,147.200 248.670,147.200 249.000 C 147.200 249.330,146.930 249.600,146.600 249.600 C 146.270 249.600,146.000 249.870,146.000 250.200 C 146.000 250.530,145.730 250.800,145.400 250.800 C 145.070 250.800,144.800 251.070,144.800 251.400 C 144.800 251.730,144.606 252.000,144.368 252.000 C 143.805 252.000,139.200 256.605,139.200 257.168 C 139.200 257.406,138.930 257.600,138.600 257.600 C 138.270 257.600,138.000 257.870,138.000 258.200 C 138.000 258.530,137.730 258.800,137.400 258.800 C 137.070 258.800,136.800 259.070,136.800 259.400 C 136.800 259.730,136.530 260.000,136.200 260.000 C 135.870 260.000,135.600 260.270,135.600 260.600 C 135.600 260.930,135.330 261.200,135.000 261.200 C 134.670 261.200,134.400 261.470,134.400 261.800 C 134.400 262.130,134.130 262.400,133.800 262.400 C 133.470 262.400,133.200 262.670,133.200 263.000 C 133.200 263.330,132.930 263.600,132.600 263.600 C 132.270 263.600,132.000 263.349,132.000 263.043 C 132.000 262.736,132.270 262.382,132.600 262.255 C 132.930 262.129,133.200 261.569,133.200 261.013 C 133.200 260.379,133.425 260.000,133.800 260.000 C 134.195 260.000,134.400 259.605,134.400 258.843 C 134.400 258.183,134.658 257.587,135.000 257.455 C 135.330 257.329,135.600 256.769,135.600 256.213 C 135.600 255.579,135.825 255.200,136.200 255.200 C 136.600 255.200,136.800 254.800,136.800 254.000 C 136.800 253.340,136.980 252.800,137.200 252.800 C 137.420 252.800,137.600 252.260,137.600 251.600 C 137.600 250.800,137.800 250.400,138.200 250.400 C 138.566 250.400,138.800 250.027,138.800 249.443 C 138.800 248.916,139.070 248.382,139.400 248.255 C 139.730 248.129,140.000 247.569,140.000 247.013 C 140.000 246.379,140.225 246.000,140.600 246.000 C 140.995 246.000,141.200 245.605,141.200 244.843 C 141.200 244.183,141.458 243.587,141.800 243.455 C 142.130 243.329,142.400 242.789,142.400 242.255 C 142.400 241.722,142.670 241.182,143.000 241.055 C 143.396 240.903,143.600 240.277,143.600 239.213 C 143.600 238.046,143.766 237.600,144.200 237.600 C 144.566 237.600,144.800 237.227,144.800 236.643 C 144.800 236.116,145.070 235.582,145.400 235.455 C 145.730 235.329,146.000 234.769,146.000 234.213 C 146.000 233.579,146.225 233.200,146.600 233.200 C 146.995 233.200,147.200 232.805,147.200 232.043 C 147.200 231.383,147.458 230.787,147.800 230.655 C 148.130 230.529,148.400 229.969,148.400 229.413 C 148.400 228.779,148.625 228.400,149.000 228.400 C 149.400 228.400,149.600 228.000,149.600 227.200 C 149.600 226.540,149.780 226.000,150.000 226.000 C 150.220 226.000,150.400 225.569,150.400 225.043 C 150.400 224.516,150.670 223.982,151.000 223.855 C 151.330 223.729,151.600 223.169,151.600 222.613 C 151.600 221.979,151.825 221.600,152.200 221.600 C 152.600 221.600,152.800 221.200,152.800 220.400 C 152.800 219.600,153.000 219.200,153.400 219.200 C 153.800 219.200,154.000 218.800,154.000 218.000 C 154.000 217.200,154.200 216.800,154.600 216.800 C 154.995 216.800,155.200 216.405,155.200 215.643 C 155.200 214.983,155.458 214.387,155.800 214.255 C 156.130 214.129,156.400 213.569,156.400 213.013 C 156.400 212.379,156.625 212.000,157.000 212.000 C 157.433 212.000,157.600 211.556,157.600 210.400 C 157.600 209.244,157.767 208.800,158.200 208.800 C 158.600 208.800,158.800 208.400,158.800 207.600 L 158.800 206.400 147.069 206.400 L 135.339 206.400 135.515 205.200 C 135.613 204.528,135.935 204.000,136.245 204.000 C 136.550 204.000,136.800 203.730,136.800 203.400 C 136.800 203.070,136.980 202.800,137.200 202.800 C 137.420 202.800,137.600 202.260,137.600 201.600 C 137.600 200.800,137.800 200.400,138.200 200.400 C 138.573 200.400,138.800 200.022,138.800 199.400 C 138.800 198.778,139.027 198.400,139.400 198.400 C 139.800 198.400,140.000 198.000,140.000 197.200 C 140.000 196.400,140.200 196.000,140.600 196.000 C 140.930 196.000,141.200 195.730,141.200 195.400 C 141.200 195.070,141.470 194.800,141.800 194.800 C 142.200 194.800,142.400 194.400,142.400 193.600 C 142.400 192.800,142.600 192.400,143.000 192.400 C 143.400 192.400,143.600 192.000,143.600 191.200 C 143.600 190.400,143.800 190.000,144.200 190.000 C 144.530 190.000,144.800 189.730,144.800 189.400 C 144.800 189.070,145.070 188.800,145.400 188.800 C 145.766 188.800,146.000 188.427,146.000 187.843 C 146.000 187.316,146.270 186.782,146.600 186.655 C 146.930 186.529,147.200 186.069,147.200 185.633 C 147.200 185.198,147.654 184.351,148.210 183.752 C 148.765 183.153,149.324 182.243,149.453 181.731 C 149.582 181.219,149.847 180.800,150.043 180.800 C 150.240 180.800,150.400 180.260,150.400 179.600 C 150.400 178.800,150.600 178.400,151.000 178.400 C 151.330 178.400,151.600 178.130,151.600 177.800 C 151.600 177.470,151.870 177.200,152.200 177.200 C 152.600 177.200,152.800 176.800,152.800 176.000 C 152.800 175.200,153.000 174.800,153.400 174.800 C 153.773 174.800,154.000 174.422,154.000 173.800 C 154.000 173.178,154.227 172.800,154.600 172.800 C 154.930 172.800,155.200 172.549,155.200 172.243 C 155.200 171.936,155.470 171.582,155.800 171.455 C 156.130 171.329,156.400 170.769,156.400 170.213 C 156.400 169.579,156.625 169.200,157.000 169.200 C 157.400 169.200,157.600 168.800,157.600 168.000 C 157.600 167.200,157.800 166.800,158.200 166.800 C 158.530 166.800,158.800 166.549,158.800 166.243 C 158.800 165.936,159.070 165.582,159.400 165.455 C 159.730 165.329,160.000 164.789,160.000 164.255 C 160.000 163.722,160.270 163.182,160.600 163.055 C 160.930 162.929,161.200 162.479,161.200 162.055 C 161.200 161.632,161.470 161.182,161.800 161.055 C 162.130 160.929,162.400 160.369,162.400 159.813 C 162.400 159.256,162.580 158.800,162.800 158.800 C 163.020 158.800,163.200 158.530,163.200 158.200 C 163.200 157.870,163.470 157.600,163.800 157.600 C 164.200 157.600,164.400 157.200,164.400 156.400 C 164.400 155.600,164.600 155.200,165.000 155.200 C 165.400 155.200,165.600 154.800,165.600 154.000 C 165.600 153.200,165.800 152.800,166.200 152.800 C 166.530 152.800,166.800 152.530,166.800 152.200 C 166.800 151.870,167.070 151.600,167.400 151.600 C 167.766 151.600,168.000 151.227,168.000 150.643 C 168.000 150.116,168.270 149.582,168.600 149.455 C 168.930 149.329,169.200 148.769,169.200 148.213 C 169.200 147.579,169.425 147.200,169.800 147.200 C 170.130 147.200,170.400 146.949,170.400 146.643 C 170.400 146.336,170.670 145.982,171.000 145.855 C 171.330 145.729,171.600 145.169,171.600 144.613 C 171.600 143.979,171.825 143.600,172.200 143.600 C 172.600 143.600,172.800 143.200,172.800 142.400 C 172.800 141.600,173.000 141.200,173.400 141.200 C 173.730 141.200,174.000 140.930,174.000 140.600 C 174.000 140.270,174.180 140.000,174.400 140.000 C 174.620 140.000,174.800 139.460,174.800 138.800 C 174.800 138.000,175.000 137.600,175.400 137.600 C 175.773 137.600,176.000 137.222,176.000 136.600 C 176.000 135.978,176.227 135.600,176.600 135.600 C 176.930 135.600,177.200 135.349,177.200 135.043 C 177.200 134.736,177.470 134.382,177.800 134.255 C 178.130 134.129,178.400 133.569,178.400 133.013 C 178.400 132.379,178.625 132.000,179.000 132.000 C 179.400 132.000,179.600 131.600,179.600 130.800 C 179.600 130.000,179.800 129.600,180.200 129.600 C 180.530 129.600,180.800 129.330,180.800 129.000 C 180.800 128.474,183.467 128.400,202.400 128.400 C 221.333 128.400,224.000 128.474,224.000 129.000 M262.400 254.200 L 262.400 271.600 202.800 271.600 C 170.020 271.600,143.200 271.524,143.200 271.432 C 143.200 271.340,144.280 270.184,145.600 268.864 C 146.920 267.544,148.000 266.270,148.000 266.032 C 148.000 265.794,148.180 265.600,148.400 265.600 C 148.919 265.600,150.400 264.119,150.400 263.600 C 150.400 263.380,150.580 263.200,150.800 263.200 C 151.319 263.200,152.800 261.719,152.800 261.200 C 152.800 260.980,153.004 260.800,153.254 260.800 C 153.504 260.800,154.125 260.350,154.635 259.800 C 155.145 259.250,155.750 258.800,155.981 258.800 C 156.211 258.800,156.400 258.530,156.400 258.200 C 156.400 257.870,156.670 257.600,157.000 257.600 C 157.330 257.600,157.600 257.330,157.600 257.000 C 157.600 256.670,157.870 256.400,158.200 256.400 C 158.530 256.400,158.800 256.130,158.800 255.800 C 158.800 255.470,159.070 255.200,159.400 255.200 C 159.730 255.200,160.000 255.020,160.000 254.800 C 160.000 254.579,160.720 253.700,161.600 252.846 C 162.480 251.992,163.200 251.093,163.200 250.847 C 163.200 250.601,163.401 250.400,163.647 250.400 C 163.893 250.400,164.792 249.680,165.646 248.800 C 166.500 247.920,167.379 247.200,167.600 247.200 C 167.820 247.200,168.000 246.930,168.000 246.600 C 168.000 246.270,168.270 246.000,168.600 246.000 C 168.930 246.000,169.200 245.730,169.200 245.400 C 169.200 245.070,169.470 244.800,169.800 244.800 C 170.130 244.800,170.400 244.530,170.400 244.200 C 170.400 243.870,170.670 243.600,171.000 243.600 C 171.330 243.600,171.600 243.330,171.600 243.000 C 171.600 242.670,171.870 242.400,172.200 242.400 C 172.530 242.400,172.800 242.130,172.800 241.800 C 172.800 241.470,173.070 241.200,173.400 241.200 C 173.730 241.200,174.000 240.930,174.000 240.600 C 174.000 240.270,174.180 240.000,174.400 240.000 C 174.620 240.000,174.800 239.730,174.800 239.400 C 174.800 239.070,175.070 238.800,175.400 238.800 C 175.730 238.800,176.000 238.530,176.000 238.200 C 176.000 237.870,176.270 237.600,176.600 237.600 C 176.930 237.600,177.200 237.420,177.200 237.200 C 177.200 236.936,191.667 236.800,219.800 236.800 L 262.400 236.800 262.400 254.200 " stroke="none" fill="#04acec" fill-rule="evenodd"></path><path id="path1" d="" stroke="none" fill="#08acec" fill-rule="evenodd"></path><path id="path2" d="" stroke="none" fill="#08acec" fill-rule="evenodd"></path><path id="path3" d="" stroke="none" fill="#08acec" fill-rule="evenodd"></path><path id="path4" d="" stroke="none" fill="#08acec" fill-rule="evenodd"></path></g></svg>
